<?xml version="1.0" encoding="iso-8859-1"?>
<!-- Generator: Adobe Illustrator 19.2.0, SVG Export Plug-In . SVG Version: 6.00 Build 0)  -->
<svg version="1.1" id="Layer_1" xmlns="http://www.w3.org/2000/svg" xmlns:xlink="http://www.w3.org/1999/xlink" x="0px" y="0px"
	 viewBox="0 0 322.93 270" style="enable-background:new 0 0 322.93 270;" xml:space="preserve">
<path style="fill:#ED5E49;" d="M253.493,269.618H76.428c-15.471,0-28.013-12.542-28.013-28.013v-22.539
	c0-15.471,12.542-28.013,28.013-28.013h177.065c15.471,0,28.013,12.542,28.013,28.013v22.539
	C281.506,257.076,268.964,269.618,253.493,269.618z"/>
<path style="fill:#1FA5B7;" d="M207.072,191.814h-22.874v-76.644h3.68c10.601,0,19.194,8.594,19.194,19.194V191.814z"/>
<path style="fill:#1FA5B7;" d="M233.142,170.628l-21.762,19.693c-3.709,3.356-9.435,3.07-12.791-0.639l-3.169-3.502
	c-3.356-3.709-3.07-9.435,0.638-12.791l21.762-19.693c3.709-3.356,9.435-3.07,12.791,0.638l3.169,3.502
	C237.137,161.545,236.851,167.272,233.142,170.628z"/>
<path style="fill:#0C7482;" d="M233.431,170.367l-2.464,2.23c-3.549,3.212-9.03,2.938-12.241-0.611l-3.691-4.079
	c-3.212-3.549-2.938-9.03,0.611-12.241l2.464-2.23c3.549-3.212,9.03-2.938,12.241,0.611l3.691,4.079
	C237.254,161.674,236.98,167.155,233.431,170.367z"/>
<path style="fill:#F7B7BA;" d="M223.393,166.533l-1.789-1.949c-3.31-3.606-3.07-9.214,0.536-12.524l5.601-5.141
	c2.007-1.842,5.126-1.708,6.968,0.298l5.414,5.898c1.308,1.425,1.213,3.641-0.212,4.95l-9.55,8.766
	C228.355,168.673,225.235,168.539,223.393,166.533z"/>
<path style="fill:#0C8199;" d="M205.583,191.814h-98.417v-47.162c0-19.35,15.686-35.036,35.036-35.036h27.845
	c19.626,0,35.536,15.91,35.536,35.536V191.814z"/>
<path style="fill:#F7B7BA;" d="M162.809,123.219l-7.889-2.079c-5.252-1.384-8.387-6.763-7.003-12.015l4.412-16.745
	c1.384-5.252,6.763-8.387,12.015-7.003l10.362,2.73c6.86,1.808,10.956,8.834,9.148,15.694l-2.226,8.447
	C179.461,120.475,171.035,125.386,162.809,123.219z"/>
<path style="fill:#F7CEC9;" d="M176.657,107.494l-11.904-2.374c-10.774-2.148-17.766-12.624-15.618-23.398l4.33-21.713
	c2.148-10.774,12.624-17.766,23.398-15.618l11.904,2.374c10.774,2.148,17.766,12.624,15.618,23.398l-4.33,21.713
	C197.906,102.65,187.431,109.643,176.657,107.494z"/>
<path style="fill:#F7CEC9;" d="M176.657,107.494l-11.904-2.374c-10.774-2.148-17.766-12.624-15.618-23.398l4.33-21.713
	c2.148-10.774,12.624-17.766,23.398-15.618l11.904,2.374c10.774,2.148,17.766,12.624,15.618,23.398l-4.33,21.713
	C197.906,102.65,187.431,109.643,176.657,107.494z"/>
<path style="fill:#DBB3AF;" d="M148.063,65.915l1.504-7.544c2.421-12.142,14.227-20.022,26.368-17.601l10.643,2.122
	c11.383,2.27,18.509,12.887,17.424,24.198c-0.014,0.149,0.13-5.513-6.286-9.589c-8.549-5.43-25.384-8.763-35.093-3.561
	c-3.001,1.608-5.793,8.225-5.968,15.387C156.345,82.03,146.98,71.348,148.063,65.915z"/>
<path style="fill:#F7B7BA;" d="M161.917,156.232l5.348-2.953c0.632-0.349,0.837-1.255,0.457-2.023l-0.457-0.923
	c-0.38-0.768-1.2-1.108-1.832-0.759l-5.348,2.953c-0.632,0.349-0.837,1.255-0.457,2.023l0.457,0.923
	C160.465,156.242,161.285,156.581,161.917,156.232z"/>
<ellipse transform="matrix(0.8317 -0.5552 0.5552 0.8317 -15.2483 95.6718)" style="fill:#F7CEC9;" cx="150.206" cy="72.991" rx="8.682" ry="8.682"/>
<path style="fill:#B28886;" d="M181.111,74.701l-6.185-4.412c-0.525-0.374-0.646-1.103-0.272-1.627l0.26-0.364
	c0.374-0.525,1.103-0.646,1.627-0.272l6.185,4.412c0.525,0.374,0.646,1.103,0.272,1.627l-0.26,0.364
	C182.364,74.954,181.636,75.076,181.111,74.701z"/>
<path style="fill:#B28886;" d="M195.225,74.878l-7.404,1.704c-0.628,0.145-1.254-0.247-1.399-0.875l-0.1-0.436
	c-0.145-0.628,0.247-1.254,0.875-1.399l7.404-1.704c0.628-0.145,1.254,0.247,1.399,0.875l0.1,0.436
	C196.245,74.107,195.853,74.734,195.225,74.878z"/>
<path style="fill:#1FA5B7;" d="M155.581,167.648l-30.568,27.661c-3.709,3.356-9.435,3.07-12.791-0.638l-3.169-3.502
	c-3.356-3.709-3.07-9.435,0.638-12.791l30.568-27.661c3.709-3.356,9.435-3.07,12.791,0.638l3.169,3.502
	C159.575,158.566,159.289,164.293,155.581,167.648z"/>
<path style="fill:#1FA5B7;" d="M135.033,115.959v66.936c0,5.002-4.055,9.056-9.056,9.056h-9.604c-5.002,0-9.056-4.055-9.056-9.056
	v-49.638c0-11.199,9.079-20.277,20.277-20.277h4.459C133.699,112.979,135.033,114.313,135.033,115.959z"/>
<path style="fill:#0C7482;" d="M155.869,167.387l-2.464,2.23c-3.549,3.212-9.03,2.938-12.241-0.611l-3.691-4.079
	c-3.212-3.549-2.938-9.03,0.611-12.241l2.464-2.23c3.549-3.212,9.03-2.938,12.241,0.611l3.691,4.079
	C159.692,158.695,159.418,164.176,155.869,167.387z"/>
<path style="fill:#F7CEC9;" d="M143.457,161.454l2.153,1.536c3.985,2.843,9.521,1.916,12.363-2.069l4.415-6.189
	c1.582-2.217,1.066-5.297-1.151-6.879l-6.518-4.649c-1.575-1.123-3.763-0.757-4.886,0.818l-7.528,10.554
	C140.724,156.793,141.239,159.873,143.457,161.454z"/>
<path style="fill:#F7CEC9;" d="M157.89,148.555l7.349-4.243c0.453-0.261,0.608-0.84,0.346-1.292l-1.126-1.95
	c-0.261-0.453-0.84-0.608-1.292-0.346l-7.349,4.243c-0.453,0.261-0.608,0.84-0.346,1.292l1.126,1.95
	C156.859,148.661,157.438,148.817,157.89,148.555z"/>
<path style="fill:#F7CEC9;" d="M152.987,146.859l9.739-6.381c0.437-0.286,0.559-0.873,0.273-1.31l-0.365-0.558
	c-0.766-1.169-2.335-1.496-3.504-0.73l-8.413,5.512c-0.437,0.286-0.559,0.873-0.273,1.31l1.234,1.883
	C151.963,147.023,152.55,147.145,152.987,146.859z"/>
<path style="fill:#F7CEC9;" d="M159.14,152.041l7.809-3.321c0.481-0.204,0.705-0.76,0.5-1.241l-0.881-2.072
	c-0.204-0.481-0.76-0.705-1.241-0.5l-7.809,3.321c-0.481,0.204-0.705,0.76-0.5,1.241l0.881,2.072
	C158.103,152.022,158.659,152.246,159.14,152.041z"/>
<path style="fill:#F7CEC9;" d="M161.172,154.631l5.976-1.266c0.706-0.15,1.166-0.956,1.027-1.802l-0.168-1.016
	c-0.139-0.846-0.825-1.41-1.532-1.26l-5.976,1.266c-0.706,0.15-1.166,0.956-1.027,1.802l0.168,1.016
	C159.78,154.216,160.466,154.781,161.172,154.631z"/>
<circle style="fill:#F7B7BA;" cx="224.948" cy="154.025" r="4.956"/>
<path style="fill:#F7CEC9;" d="M230.118,150.394l7.349-4.243c0.453-0.261,0.608-0.84,0.346-1.292l-0.333-0.577
	c-0.699-1.211-2.247-1.625-3.457-0.926l-5.977,3.451c-0.453,0.261-0.608,0.84-0.346,1.292l1.126,1.95
	C229.087,150.5,229.666,150.655,230.118,150.394z"/>
<path style="fill:#F7CEC9;" d="M232.884,154.215l7.349-4.243c0.452-0.261,0.608-0.84,0.346-1.292l-1.126-1.95
	c-0.261-0.453-0.84-0.608-1.292-0.346l-7.349,4.243c-0.453,0.261-0.608,0.84-0.346,1.292l1.126,1.95
	C231.853,154.321,232.431,154.476,232.884,154.215z"/>
<path style="fill:#F7B7BA;" d="M224.13,153.924l2.229-6.29c0.27-0.761-0.129-1.596-0.889-1.865l-1.355-0.48
	c-0.648-0.23-1.36,0.11-1.59,0.758l-2.301,6.493c-0.175,0.492,0.083,1.033,0.576,1.208l2.122,0.752
	C223.415,154.674,223.955,154.416,224.13,153.924z"/>
<path style="fill:#F7CEC9;" d="M235.813,157.84l7.349-4.243c0.453-0.261,0.608-0.84,0.346-1.292l-1.126-1.95
	c-0.261-0.453-0.84-0.608-1.292-0.346l-7.349,4.243c-0.453,0.261-0.608,0.84-0.346,1.292l1.126,1.95
	C234.782,157.946,235.361,158.101,235.813,157.84z"/>
<path style="fill:#F7CEC9;" d="M238.495,161.762l4.492-2.594c1.211-0.699,1.625-2.247,0.926-3.457l-0.333-0.577
	c-0.261-0.453-0.84-0.608-1.292-0.346l-5.865,3.386c-0.453,0.261-0.608,0.84-0.346,1.292l1.126,1.95
	C237.464,161.869,238.042,162.024,238.495,161.762z"/>
<path style="fill:#F7CEC9;" d="M222.234,147.85l2.608,5.317c0.139,0.284,0.483,0.402,0.767,0.262l2.69-1.32
	c0.284-0.139,0.402-0.483,0.262-0.767l-2.672-5.446c-0.405-0.826-1.404-1.168-2.23-0.762l-0.598,0.294
	C222.164,145.868,221.793,146.952,222.234,147.85z"/>
<path style="fill:#F595A9;" d="M179.101,104.38l-5.999-1.196c-2.749-0.548-4.534-3.221-3.985-5.971l1.196-5.999
	c0.548-2.749,3.221-4.534,5.971-3.985l5.999,1.196c2.749,0.548,4.534,3.221,3.985,5.971l-1.196,5.999
	C184.524,103.144,181.851,104.928,179.101,104.38z"/>
<g>
	<defs>
		<path id="SVGID_1_" d="M179.715,101.305l-5.999-1.196c-2.749-0.548-4.534-3.221-3.985-5.971l0.583-2.925
			c0.548-2.749,3.221-4.534,5.971-3.985l5.999,1.196c2.749,0.548,4.534,3.221,3.985,5.971l-0.583,2.925
			C185.137,100.069,182.464,101.854,179.715,101.305z"/>
	</defs>
	<clipPath id="SVGID_2_">
		<use xlink:href="#SVGID_1_"  style="overflow:visible;"/>
	</clipPath>
	<path style="clip-path:url(#SVGID_2_);fill:#FFFFFF;" d="M180.539,91.793l-3.936-0.785c-1.106-0.221-1.823-1.296-1.603-2.402
		l0.472-2.369c0.221-1.106,1.296-1.823,2.402-1.603l3.936,0.785c1.106,0.221,1.823,1.296,1.603,2.402l-0.472,2.369
		C182.72,91.296,181.645,92.013,180.539,91.793z"/>
</g>
<path style="fill:#DBB3AF;" d="M174.002,50.314c0,0-4.568,0.695-7.15,5.263c-2.582,4.568-2.979,6.753-2.979,6.753
	s-4.601-3.299-6.424,0.85c-1.823,4.15,0.897-12.172,0.897-12.172l11.485-3.079L174.002,50.314z"/>
<path style="fill:none;stroke:#4C453F;stroke-miterlimit:10;" d="M181.577,75.817c-0.667,1.523-2.442,2.216-3.965,1.549
	c-1.523-0.667-2.216-2.442-1.549-3.965"/>
<path style="fill:none;stroke:#4C453F;stroke-miterlimit:10;" d="M192.936,78.063c-0.2,1.65-1.7,2.826-3.35,2.626
	c-1.65-0.2-2.826-1.7-2.626-3.35"/>
<g>
	<path style="fill:#FFFFFF;" d="M100.152,237.435v-15.1c0-5.457,0.689-9.592,2.067-12.4c2.648-5.669,7.736-8.505,15.26-8.505
		c6.835,0,11.737,2.545,14.705,7.63c1.748,3.18,2.623,7.604,2.623,13.275v15.1c0,2.651-0.134,4.796-0.398,6.438
		c-0.266,1.644-0.492,2.797-0.675,3.458c-0.188,0.663-0.517,1.47-0.995,2.425c-2.651,5.723-7.736,8.583-15.26,8.583
		c-5.88,0-10.241-1.708-13.075-5.125C101.57,249.795,100.152,244.536,100.152,237.435z M123.045,236.085v-12.4
		c0-4.027-0.24-6.835-0.717-8.425c-0.741-2.331-2.357-3.498-4.848-3.498c-2.385,0-4.001,1.141-4.848,3.418
		c-0.477,1.432-0.715,4.267-0.715,8.505v12.4c0,4.027,0.238,6.835,0.715,8.425c0.741,2.331,2.357,3.495,4.848,3.495
		c2.385,0,4.001-1.138,4.848-3.418C122.805,243.158,123.045,240.323,123.045,236.085z"/>
	<path style="fill:#FFFFFF;" d="M152.531,225.752v29.168c0,1.061-0.238,1.79-0.715,2.187c-0.477,0.398-1.167,0.595-2.067,0.595
		h-6.198c-1.009,0-1.644-0.106-1.908-0.318c-0.586-0.423-0.875-1.244-0.875-2.465v-50.074c0-1.004,0.106-1.642,0.318-1.908
		c0.423-0.581,1.244-0.873,2.465-0.873h7.073c0.795,0,1.484,0.266,2.067,0.795c0.318,0.158,0.581,0.529,0.795,1.113l8.583,17.168
		l0.398,0.873l0.24,0.32l0.318,0.158l0.555-0.555l0.318-0.717l8.585-17.008c0.423-0.847,0.875-1.416,1.35-1.71
		c0.477-0.289,1.035-0.435,1.67-0.435h6.678c1.058,0,1.788,0.238,2.185,0.715c0.398,0.475,0.595,1.167,0.595,2.065v50.074
		c0,1.061-0.238,1.79-0.715,2.187c-0.477,0.398-1.167,0.595-2.065,0.595h-6.2c-1.113,0-1.882-0.212-2.305-0.635
		c-0.318-0.477-0.477-1.193-0.477-2.147v-28.296v-0.238l-0.16-0.238l-0.24,0.158l-6.247,14.943c-0.322,0.795-0.616,1.324-0.882,1.59
		l-1.282,0.477h-2.721c-0.91,0-1.63-0.689-2.164-2.067l-6.409-15.578L152.531,225.752z"/>
	<path style="fill:#FFFFFF;" d="M207.212,234.029v-6.941c0-0.315,0.146-0.642,0.438-0.983c0.292-0.343,0.729-0.593,1.312-0.75
		h15.815c1.167,0,1.75,0.581,1.75,1.743v15.383c0,3.754-0.795,6.953-2.385,9.594c-2.757,4.177-7.524,6.264-14.308,6.264
		c-5.617,0-9.749-1.004-12.398-3.02c-4.347-3.232-6.518-9.032-6.518-17.405v-16.77c0-8.268,2.568-13.91,7.71-16.93
		c3.126-1.853,7.602-2.783,13.433-2.783c5.139,0,8.557,0.428,10.253,1.28c0.953,0.48,1.43,1.308,1.43,2.481v6.798l-0.08,1.28
		c-0.158,0.48-0.609,0.748-1.35,0.8l-4.85-1.007c-1.588-0.336-3.286-0.503-5.085-0.503c-4.241,0-7.049,1.247-8.425,3.735
		c-0.849,1.698-1.272,4.241-1.272,7.63v11.288c0,4.187,0.212,6.941,0.637,8.265c0.793,3.02,2.674,4.53,5.643,4.53
		c1.959,0,3.498-0.715,4.61-2.145c0.795-1.218,1.193-2.863,1.193-4.928v-3.658l-0.24-1.113c-0.158-0.318-0.583-0.475-1.27-0.475
		h-4.373C207.77,235.688,207.212,235.135,207.212,234.029z"/>
</g>
</svg>
