<?xml version="1.0" encoding="iso-8859-1"?>
<!-- Generator: Adobe Illustrator 19.2.0, SVG Export Plug-In . SVG Version: 6.00 Build 0)  -->
<svg version="1.1" id="Layer_1" xmlns="http://www.w3.org/2000/svg" xmlns:xlink="http://www.w3.org/1999/xlink" x="0px" y="0px"
	 viewBox="0 0 317 270" style="enable-background:new 0 0 317 270;" xml:space="preserve">
<g>
	<path style="fill:#4C453F;" d="M165.389,114.537h-5.963c-3.549,0-6.426-2.877-6.426-6.426V79.406c0-3.549,2.877-6.426,6.426-6.426
		h5.963c3.549,0,6.426,2.877,6.426,6.426v28.705C171.815,111.66,168.938,114.537,165.389,114.537z"/>
	<path style="fill:#A08A7A;" d="M114.658,141.645l-43.53-2.466c-4.559-0.258-8.045-4.163-7.787-8.722l0.356-6.294
		c0.258-4.559,4.163-8.045,8.722-7.787l43.53,2.466c4.559,0.258,8.045,4.163,7.787,8.722l-0.356,6.294
		C123.122,138.417,119.217,141.903,114.658,141.645z"/>
	<path style="fill:#B4A08F;" d="M171.632,191.667h-53.294c-3.556,0-6.438-2.882-6.438-6.438v-57.405
		c0-9.455,7.665-17.12,17.12-17.12h32.165c9.455,0,17.12,7.665,17.12,17.12v57.17C178.304,188.68,175.317,191.667,171.632,191.667z"
		/>
	<path style="fill:#4C453F;" d="M160.611,191.667h-41.309c-2.631,0-4.763-2.133-4.763-4.763v-48.379
		c0-9.455,7.665-17.12,17.12-17.12h17.5c9.455,0,17.12,7.665,17.12,17.12V186C166.279,189.13,163.741,191.667,160.611,191.667z"/>
	<path style="fill:#65564C;" d="M124.609,181.854h-4.261c-2.444,0-4.425-1.981-4.425-4.425v-8.845c0-2.444,1.981-4.425,4.425-4.425
		h4.261c2.444,0,4.425,1.981,4.425,4.425v8.845C129.033,179.873,127.052,181.854,124.609,181.854z"/>
	<path style="fill:#65564C;" d="M138.164,181.854h-4.261c-2.444,0-4.425-1.981-4.425-4.425v-8.845c0-2.444,1.981-4.425,4.425-4.425
		h4.261c2.444,0,4.425,1.981,4.425,4.425v8.845C142.589,179.873,140.608,181.854,138.164,181.854z"/>
	<path style="fill:#65564C;" d="M151.72,181.854h-4.261c-2.444,0-4.425-1.981-4.425-4.425v-8.845c0-2.444,1.981-4.425,4.425-4.425
		h4.261c2.444,0,4.425,1.981,4.425,4.425v8.845C156.144,179.873,154.163,181.854,151.72,181.854z"/>
	<path style="fill:#72635A;" d="M131.609,173.007h-4.261c-2.444,0-4.425-1.981-4.425-4.425v-8.845c0-2.444,1.981-4.425,4.425-4.425
		h4.261c2.444,0,4.425,1.981,4.425,4.425v8.845C136.034,171.026,134.053,173.007,131.609,173.007z"/>
	<path style="fill:#72635A;" d="M145.164,173.007h-4.261c-2.444,0-4.425-1.981-4.425-4.425v-8.845c0-2.444,1.981-4.425,4.425-4.425
		h4.261c2.444,0,4.425,1.981,4.425,4.425v8.845C149.589,171.026,147.608,173.007,145.164,173.007z"/>
	<path style="fill:#65564C;" d="M124.609,161.462h-4.261c-2.444,0-4.425-1.981-4.425-4.425v-8.845c0-2.444,1.981-4.425,4.425-4.425
		h4.261c2.444,0,4.425,1.981,4.425,4.425v8.845C129.033,159.481,127.052,161.462,124.609,161.462z"/>
	<path style="fill:#65564C;" d="M138.164,161.462h-4.261c-2.444,0-4.425-1.981-4.425-4.425v-8.845c0-2.444,1.981-4.425,4.425-4.425
		h4.261c2.444,0,4.425,1.981,4.425,4.425v8.845C142.589,159.481,140.608,161.462,138.164,161.462z"/>
	<path style="fill:#65564C;" d="M151.72,161.462h-4.261c-2.444,0-4.425-1.981-4.425-4.425v-8.845c0-2.444,1.981-4.425,4.425-4.425
		h4.261c2.444,0,4.425,1.981,4.425,4.425v8.845C156.144,159.481,154.163,161.462,151.72,161.462z"/>
	<path style="fill:#F7CEC9;" d="M152.924,115.665H137.28c-5.792,0-10.488-4.696-10.488-10.488V78.951
		c0-5.792,4.696-10.488,10.488-10.488h15.644c5.792,0,10.488,4.696,10.488,10.488v26.225
		C163.412,110.969,158.716,115.665,152.924,115.665z"/>
	<path style="fill:#4C453F;" d="M131.877,114.537h-5.963c-3.549,0-6.426-2.877-6.426-6.426V79.406c0-3.549,2.877-6.426,6.426-6.426
		h5.963c3.549,0,6.426,2.877,6.426,6.426v28.705C138.303,111.66,135.426,114.537,131.877,114.537z"/>
	<path style="fill:#F7B7BA;" d="M127.747,102.679l-8.597,2.139c-1.089,0.271-2.191-0.392-2.462-1.481l-0.183-0.735
		c-0.271-1.089,0.392-2.191,1.481-2.462l8.597-2.139c1.089-0.271,2.191,0.392,2.462,1.481l0.183,0.735
		C129.499,101.306,128.836,102.408,127.747,102.679z"/>
	<path style="fill:#F7B7BA;" d="M135.557,101.873l-8.803,0.993c-1.115,0.126-2.12-0.676-2.246-1.791l-0.085-0.753
		c-0.126-1.115,0.676-2.12,1.791-2.246l8.803-0.993c1.115-0.126,2.12,0.676,2.246,1.791l0.085,0.753
		C137.473,100.742,136.671,101.747,135.557,101.873z"/>
	<path style="fill:#F7B7BA;" d="M131.154,110.534l-8.477-2.572c-1.074-0.326-1.68-1.46-1.354-2.533l0.22-0.725
		c0.326-1.074,1.46-1.68,2.533-1.354l8.477,2.572c1.074,0.326,1.68,1.46,1.354,2.533l-0.22,0.725
		C133.362,110.254,132.228,110.86,131.154,110.534z"/>
	<path style="fill:#B4A08F;" d="M211.414,128.434l-40.7,4.811c-4.535,0.536-8.645-2.706-9.181-7.24l-0.74-6.26
		c-0.536-4.535,2.706-8.645,7.24-9.181l40.7-4.81c4.535-0.536,8.645,2.706,9.181,7.24l0.74,6.26
		C219.19,123.788,215.949,127.898,211.414,128.434z"/>
	<path style="fill:#B4A08F;" d="M252.602,112.631l-40.443,15.532c-4.263,1.637-9.045-0.491-10.682-4.754l-2.26-5.885
		c-1.637-4.263,0.491-9.045,4.754-10.682l40.443-15.532c4.263-1.637,9.045,0.491,10.682,4.754l2.26,5.885
		C258.994,106.211,256.865,110.994,252.602,112.631z"/>
	<path style="fill:#36261C;" d="M252.602,112.631l-2.878,1.105c-4.263,1.637-9.045-0.491-10.682-4.754l-2.26-5.885
		c-1.637-4.263,0.491-9.045,4.754-10.682l2.878-1.105c4.263-1.637,9.045,0.491,10.682,4.754l2.26,5.885
		C258.994,106.211,256.865,110.994,252.602,112.631z"/>
	<path style="fill:#B4A08F;" d="M115.09,122.745l-40.443,15.532c-4.263,1.637-9.045-0.491-10.682-4.754l-2.26-5.885
		c-1.637-4.263,0.491-9.045,4.754-10.682l40.443-15.532c4.263-1.637,9.045,0.491,10.682,4.754l2.26,5.885
		C121.481,116.325,119.352,121.107,115.09,122.745z"/>
	<path style="fill:#65564C;" d="M128.78,128.068l-6.379,3.125c-2.194,1.075-4.845,0.168-5.92-2.027l-6.73-13.735
		c-1.075-2.194-0.168-4.845,2.027-5.92l6.379-3.125c2.194-1.075,4.845-0.168,5.92,2.026l6.73,13.735
		C131.881,124.343,130.974,126.993,128.78,128.068z"/>
	<path style="fill:#36261C;" d="M115.09,122.745l-2.878,1.105c-4.263,1.637-9.045-0.491-10.682-4.754l-2.26-5.885
		c-1.637-4.263,0.491-9.045,4.754-10.682l2.878-1.105c4.263-1.637,9.045,0.491,10.682,4.754l2.26,5.885
		C121.481,116.325,119.352,121.107,115.09,122.745z"/>
	<path style="fill:#F7B7BA;" d="M255.645,109.683l-6.374,1.43c-2.444,0.548-4.87-0.989-5.419-3.433l-2.259-10.07
		c-0.548-2.444,0.989-4.87,3.433-5.419l6.374-1.43c2.444-0.548,4.87,0.989,5.419,3.433l2.259,10.07
		C259.626,106.709,258.089,109.135,255.645,109.683z"/>
	<path style="fill:#F7B7BA;" d="M123.357,102.257l2.044,3.541c1.253,2.17,0.509,4.944-1.66,6.196l-8.937,5.16
		c-2.169,1.253-4.944,0.509-6.196-1.66l-2.044-3.541c-1.253-2.17-0.509-4.944,1.66-6.196l8.937-5.16
		C119.33,99.345,122.105,100.088,123.357,102.257z"/>
	<circle style="fill:#F7B7BA;" cx="247.069" cy="95.961" r="5.741"/>
	<path style="fill:#65564C;" d="M253.152,126.412h-0.684c-1.013,0-1.833-0.821-1.833-1.833V74.854c0-1.013,0.821-1.833,1.833-1.833
		h0.684c1.013,0,1.833,0.821,1.833,1.833v49.724C254.985,125.591,254.164,126.412,253.152,126.412z"/>
	<path style="fill:#F7CEC9;" d="M253.127,91.063l-5.014,3.748c-0.898,0.672-2.171,0.488-2.843-0.411l-0.72-0.963
		c-0.672-0.899-0.488-2.171,0.411-2.843l5.014-3.748c0.899-0.672,2.171-0.488,2.843,0.411l0.72,0.963
		C254.209,89.118,254.025,90.391,253.127,91.063z"/>
	<path style="fill:#F7CEC9;" d="M256.892,91.439l-5.555,0.328c-1.12,0.066-2.081-0.788-2.148-1.908l-0.071-1.2
		c-0.066-1.12,0.788-2.081,1.908-2.148l5.555-0.328c1.12-0.066,2.081,0.788,2.148,1.908l0.071,1.2
		C258.866,90.412,258.012,91.373,256.892,91.439z"/>
	<path style="fill:#F7CEC9;" d="M261.597,95.45l-7.924,0.468c-1.12,0.066-2.081-0.788-2.148-1.908l-0.045-0.756
		c-0.066-1.12,0.788-2.081,1.908-2.148l7.924-0.468c1.12-0.066,2.081,0.788,2.148,1.908l0.045,0.756
		C263.571,94.422,262.717,95.383,261.597,95.45z"/>
	<path style="fill:#F7CEC9;" d="M262.516,100.326l-8.844,0.523c-1.12,0.066-2.081-0.788-2.148-1.908l-0.045-0.756
		c-0.066-1.12,0.788-2.081,1.908-2.148l8.844-0.523c1.12-0.066,2.081,0.788,2.148,1.908l0.045,0.756
		C264.49,99.299,263.636,100.26,262.516,100.326z"/>
	<path style="fill:#F7CEC9;" d="M122.75,120.394l-3.898-7.955c-0.494-1.007-0.077-2.224,0.93-2.718l0.68-0.333
		c1.007-0.494,2.224-0.077,2.718,0.93l3.898,7.955c0.494,1.007,0.077,2.224-0.93,2.718l-0.68,0.333
		C124.461,121.818,123.244,121.401,122.75,120.394z"/>
	<path style="fill:#F7CEC9;" d="M127.4,118.116l-3.898-7.955c-0.494-1.007-0.077-2.224,0.93-2.718l0.68-0.333
		c1.007-0.494,2.224-0.077,2.718,0.93l3.898,7.955c0.494,1.007,0.077,2.224-0.93,2.718l-0.68,0.333
		C129.11,119.539,127.894,119.123,127.4,118.116z"/>
	<path style="fill:#F7CEC9;" d="M118.991,113.262l-4.657-4.469c-0.809-0.777-0.836-2.063-0.059-2.872l0.524-0.547
		c0.777-0.809,2.063-0.836,2.872-0.059l4.657,4.469c0.809,0.777,0.836,2.063,0.059,2.872l-0.524,0.547
		C121.087,114.013,119.801,114.039,118.991,113.262z"/>
	<path style="fill:#F7CEC9;" d="M124.311,111.191l-6.392-6.134c-0.809-0.777-0.836-2.063-0.059-2.872l0.524-0.547
		c0.777-0.809,2.063-0.836,2.872-0.059l6.392,6.134c0.809,0.777,0.836,2.063,0.059,2.872l-0.524,0.547
		C126.407,111.941,125.121,111.968,124.311,111.191z"/>
	<path style="fill:#F7CEC9;" d="M130.379,103.761h-8.859c-1.122,0-2.031-0.909-2.031-2.031v-0.758c0-1.122,0.909-2.031,2.031-2.031
		h8.859c1.122,0,2.031,0.909,2.031,2.031v0.757C132.41,102.851,131.5,103.761,130.379,103.761z"/>
	<path style="fill:#F7CEC9;" d="M138.151,104.865l-8.783-1.162c-1.112-0.147-1.894-1.168-1.747-2.28l0.099-0.751
		c0.147-1.112,1.168-1.894,2.28-1.747l8.783,1.162c1.112,0.147,1.894,1.168,1.747,2.28l-0.099,0.751
		C140.284,104.23,139.263,105.012,138.151,104.865z"/>
	<path style="fill:#F7CEC9;" d="M261.597,105.423l-7.924,0.468c-1.12,0.066-2.081-0.788-2.148-1.908l-0.045-0.756
		c-0.066-1.12,0.788-2.081,1.908-2.148l7.924-0.468c1.12-0.066,2.081,0.788,2.148,1.908l0.045,0.756
		C263.571,104.395,262.717,105.357,261.597,105.423z"/>
	<path style="fill:#F7CEC9;" d="M259.743,110.538l-6.07,0.359c-1.12,0.066-2.081-0.788-2.148-1.908l-0.045-0.756
		c-0.066-1.12,0.788-2.081,1.908-2.148l6.07-0.359c1.12-0.066,2.081,0.788,2.148,1.908l0.045,0.756
		C261.717,109.51,260.863,110.472,259.743,110.538z"/>
	<path style="fill:#4C453F;" d="M119.488,80.504v-3.242c0-6.139,4.976-11.115,11.115-11.115h29.812c6.296,0,11.4,5.104,11.4,11.4
		v2.957c0,2.462-1.996,4.458-4.458,4.458h-43.411C121.484,84.962,119.488,82.966,119.488,80.504z"/>
	<path style="fill:#65564C;" d="M167.305,84.045h-35.174c-0.552,0-1-0.448-1-1v-0.373c0-0.552,0.448-1,1-1h35.174
		c0.552,0,1,0.448,1,1v0.373C168.305,83.598,167.858,84.045,167.305,84.045z"/>
	<path style="fill:#4C453F;" d="M135.251,68.16l-0.74,0.567c-1.096,0.84-2.665,0.633-3.505-0.463l-4.718-6.154
		c-0.84-1.096-0.633-2.665,0.463-3.505l0.74-0.567c1.096-0.84,2.665-0.633,3.505,0.463l4.718,6.154
		C136.554,65.751,136.346,67.32,135.251,68.16z"/>
	<circle style="fill:#4C453F;" cx="156.688" cy="92.064" r="1.695"/>
	<circle style="fill:#4C453F;" cx="143.957" cy="92.064" r="1.695"/>
	<path style="fill:#FFFFFF;" d="M145.214,105.646c0-2.082,1.224-3.769,2.735-3.769h5.221c1.51,0,2.735,1.688,2.735,3.769"/>
	<path style="fill:#4C453F;" d="M131.609,152.615h-4.261c-2.444,0-4.425-1.981-4.425-4.425v-8.845c0-2.444,1.981-4.425,4.425-4.425
		h4.261c2.444,0,4.425,1.981,4.425,4.425v8.845C136.034,150.634,134.053,152.615,131.609,152.615z"/>
	<path style="fill:#4C453F;" d="M145.164,152.615h-4.261c-2.444,0-4.425-1.981-4.425-4.425v-8.845c0-2.444,1.981-4.425,4.425-4.425
		h4.261c2.444,0,4.425,1.981,4.425,4.425v8.845C149.589,150.634,147.608,152.615,145.164,152.615z"/>
	<path style="fill:#65564C;" d="M157.591,132.452l-5.023-5.023c-1.728-1.728-1.728-4.529,0-6.257l10.815-10.815
		c1.728-1.728,4.529-1.728,6.257,0l5.023,5.023c1.728,1.728,1.728,4.529,0,6.257l-10.815,10.815
		C162.121,134.18,159.319,134.18,157.591,132.452z"/>
	<path style="fill:#65564C;" d="M262.298,67.952h-0.684c-1.013,0-1.833-0.821-1.833-1.833V42.326c0-1.013,0.821-1.833,1.833-1.833
		h0.684c1.013,0,1.833,0.821,1.833,1.833v23.793C264.131,67.132,263.311,67.952,262.298,67.952z"/>
	<path style="fill:#65564C;" d="M251.646,76.763l-0.483-0.483c-0.716-0.716-0.716-1.877,0-2.593l9.404-9.404
		c0.716-0.716,1.877-0.716,2.593,0l0.483,0.483c0.716,0.716,0.716,1.877,0,2.593l-9.404,9.404
		C253.523,77.478,252.362,77.478,251.646,76.763z"/>
	<path style="fill:#65564C;" d="M237.147,18.319l0.483-0.483c0.716-0.716,1.877-0.716,2.593,0l23.478,23.478
		c0.716,0.716,0.716,1.877,0,2.593l-0.483,0.483c-0.716,0.716-1.877,0.716-2.593,0l-23.478-23.478
		C236.431,20.196,236.431,19.035,237.147,18.319z"/>
	<path style="fill:#65564C;" d="M262.152,131.249h-0.684c-1.013,0-1.833,0.821-1.833,1.833v23.793c0,1.013,0.821,1.833,1.833,1.833
		h0.684c1.013,0,1.833-0.821,1.833-1.833v-23.793C263.986,132.07,263.165,131.249,262.152,131.249z"/>
	<path style="fill:#65564C;" d="M251.5,122.439l-0.483,0.483c-0.716,0.716-0.716,1.877,0,2.593l9.404,9.404
		c0.716,0.716,1.877,0.716,2.593,0l0.483-0.483c0.716-0.716,0.716-1.877,0-2.593l-9.404-9.404
		C253.377,121.723,252.216,121.723,251.5,122.439z"/>
	<path style="fill:#65564C;" d="M237.001,180.883l0.483,0.483c0.716,0.716,1.877,0.716,2.593,0l23.478-23.478
		c0.716-0.716,0.716-1.877,0-2.593l-0.483-0.483c-0.716-0.716-1.877-0.716-2.593,0l-23.478,23.478
		C236.285,179.006,236.285,180.167,237.001,180.883z"/>
	
		<rect x="236.886" y="20.102" transform="matrix(-1 -1.224647e-016 1.224647e-016 -1 474.4763 199.1142)" style="fill:#65564C;" width="0.703" height="158.909"/>
</g>
<path style="fill:#ED5E49;" d="M247.138,264.68H70.073c-15.471,0-28.013-12.542-28.013-28.013v-22.539
	c0-15.471,12.542-28.013,28.013-28.013h177.065c15.471,0,28.013,12.542,28.013,28.013v22.539
	C275.151,252.138,262.609,264.68,247.138,264.68z"/>
<g>
	<path style="fill:#FFFFFF;" d="M107.869,250.443v-50.995c0-1.023,0.108-1.672,0.325-1.943c0.431-0.592,1.267-0.889,2.509-0.889
		h6.313c1.079,0,1.822,0.242,2.227,0.728c0.405,0.484,0.607,1.188,0.607,2.103v42.336c0,0.647,0.296,0.97,0.89,0.97h15.056
		c0.81,0,1.402,0.189,1.781,0.568c0.107,0.108,0.242,0.594,0.405,1.456v5.665c0,1.025-0.109,1.674-0.325,1.943
		c-0.432,0.594-1.268,0.891-2.509,0.891h-24.445c-1.026,0-1.673-0.108-1.943-0.323C108.165,252.522,107.869,251.686,107.869,250.443
		z"/>
	<path style="fill:#FFFFFF;" d="M142.026,232.636v-15.378c0-5.557,0.701-9.768,2.106-12.628c2.697-5.773,7.877-8.662,15.541-8.662
		c6.961,0,11.952,2.592,14.975,7.771c1.781,3.239,2.671,7.744,2.671,13.519v15.378c0,2.7-0.135,4.884-0.405,6.556
		c-0.271,1.674-0.499,2.848-0.687,3.521c-0.19,0.675-0.527,1.497-1.012,2.47c-2.7,5.828-7.88,8.741-15.541,8.741
		c-5.99,0-10.429-1.739-13.316-5.22C143.469,245.224,142.026,239.868,142.026,232.636z M165.339,231.261v-12.628
		c0-4.101-0.243-6.961-0.729-8.58c-0.756-2.374-2.401-3.562-4.937-3.562c-2.429,0-4.076,1.162-4.938,3.48
		c-0.485,1.459-0.728,4.345-0.728,8.662v12.628c0,4.101,0.243,6.961,0.728,8.58c0.756,2.374,2.4,3.56,4.938,3.56
		c2.428,0,4.073-1.159,4.937-3.48C165.096,238.464,165.339,235.578,165.339,231.261z"/>
	<path style="fill:#FFFFFF;" d="M183.388,250.443v-50.995c0-1.023,0.108-1.672,0.325-1.943c0.431-0.592,1.267-0.889,2.509-0.889
		h6.313c1.079,0,1.822,0.242,2.227,0.728c0.405,0.484,0.607,1.188,0.607,2.103v42.336c0,0.647,0.296,0.97,0.89,0.97h15.056
		c0.81,0,1.402,0.189,1.781,0.568c0.107,0.108,0.242,0.594,0.405,1.456v5.665c0,1.025-0.109,1.674-0.325,1.943
		c-0.432,0.594-1.268,0.891-2.509,0.891h-24.445c-1.026,0-1.673-0.108-1.943-0.323C183.684,252.522,183.388,251.686,183.388,250.443
		z"/>
</g>
</svg>
