<?xml version="1.0" encoding="iso-8859-1"?>
<!-- Generator: Adobe Illustrator 19.2.0, SVG Export Plug-In . SVG Version: 6.00 Build 0)  -->
<svg version="1.1" id="Layer_1" xmlns="http://www.w3.org/2000/svg" xmlns:xlink="http://www.w3.org/1999/xlink" x="0px" y="0px"
	 viewBox="0 0 317 270" style="enable-background:new 0 0 317 270;" xml:space="preserve">
<g style="opacity:0.49;">
	<path style="fill:#335CA8;" d="M104.875,181.317h19.217c0.679,0,1.229-0.55,1.229-1.229l0,0c0-3.075-2.493-5.568-5.568-5.568
		h-14.878c-0.679,0-1.229,0.55-1.229,1.229v4.339C103.646,180.767,104.197,181.317,104.875,181.317z"/>
	<path style="fill:#335CA8;" d="M104.194,177.094h12.62c0.303,0,0.548-0.245,0.548-0.548v-5.701c0-0.303-0.245-0.548-0.548-0.548
		h-12.62c-0.303,0-0.548,0.245-0.548,0.548v5.701C103.646,176.848,103.892,177.094,104.194,177.094z"/>
	<path style="fill:#04334D;" d="M117.477,181.328h-36.12c-1.877,0-3.398-1.522-3.398-3.398l0,0c0-1.877,1.521-3.398,3.398-3.398
		h36.12c1.877,0,3.398,1.521,3.398,3.398l0,0C120.876,179.807,119.354,181.328,117.477,181.328z"/>
	<path style="fill:#04334D;" d="M112.158,175.807H92.211c-1.877,0-3.398-1.522-3.398-3.398l0,0c0-1.877,1.522-3.398,3.398-3.398
		h19.947c1.877,0,3.398,1.521,3.398,3.398l0,0C115.557,174.286,114.035,175.807,112.158,175.807z"/>
	<path style="fill:#335CA8;" d="M84.611,181.317H65.393c-0.679,0-1.229-0.55-1.229-1.229l0,0c0-3.075,2.493-5.568,5.568-5.568
		h14.878c0.679,0,1.229,0.55,1.229,1.229v4.339C85.84,180.767,85.289,181.317,84.611,181.317z"/>
	<path style="fill:#335CA8;" d="M85.292,177.094h-12.62c-0.303,0-0.548-0.245-0.548-0.548v-5.701c0-0.303,0.245-0.548,0.548-0.548
		h12.62c0.303,0,0.548,0.245,0.548,0.548v5.701C85.84,176.848,85.594,177.094,85.292,177.094z"/>
</g>
<g>
	<path style="fill:#66A8C6;" d="M243.553,180.416h-54.453c-1.877,0-3.398-1.521-3.398-3.398v0c0-1.877,1.521-3.398,3.398-3.398
		h54.453c1.877,0,3.398,1.521,3.398,3.398v0C246.951,178.895,245.43,180.416,243.553,180.416z"/>
	<path style="fill:#66A8C6;" d="M235.219,174.666h-36.12c-1.877,0-3.398-1.521-3.398-3.398v0c0-1.877,1.521-3.398,3.398-3.398h36.12
		c1.877,0,3.398,1.521,3.398,3.398v0C238.618,173.145,237.096,174.666,235.219,174.666z"/>
	<path style="fill:#66A8C6;" d="M220.219,168.833h-14.12c-1.877,0-3.398-1.521-3.398-3.398v0c0-1.877,1.521-3.398,3.398-3.398h14.12
		c1.877,0,3.398,1.521,3.398,3.398v0C223.618,167.311,222.096,168.833,220.219,168.833z"/>
</g>
<path style="fill:#F7CEC9;" d="M119.839,78.912L119.839,78.912c0,2.761-2.239,5-5,5H92.874c-2.761,0-5-2.239-5-5v0
	c0-2.761,2.239-5,5-5h21.965C117.601,73.912,119.839,76.15,119.839,78.912z"/>
<path style="fill:#F7CEC9;" d="M132.115,152.967l-4.316,0.283c-2.581,0.169-4.81-1.786-4.979-4.367l-1.836-28.046
	c-0.169-2.581,1.786-4.81,4.367-4.979l4.316-0.283c2.581-0.169,4.81,1.786,4.979,4.367l1.836,28.046
	C136.65,150.569,134.695,152.798,132.115,152.967z"/>
<path style="fill:#F7CEC9;" d="M93.063,151.741l-3.996-1.655c-2.389-0.99-3.524-3.729-2.534-6.118l10.757-25.966
	c0.99-2.389,3.729-3.524,6.118-2.534l3.996,1.655c2.389,0.99,3.524,3.729,2.534,6.118l-10.757,25.966
	C98.192,151.597,95.452,152.731,93.063,151.741z"/>
<path style="fill:#04334D;" d="M97.955,110.803l-5.675,19.36c0,0-1.683,1.961,4.543,4.265c8.333,3.083,8.279,0.556,8.279,0.556
	s0.175-1.243,1.625-1.243s13.825,0,13.825,0s1.377-0.249,1.377,1.243s0.623,1.649,2.06,1.649s10.125,0,10.125,0
	s1.556,0.23,1.556-1.33s0-23.447,0-23.447L97.955,110.803z"/>
<path style="fill:#F7B7BA;" d="M114.058,123.939l-8.36-4.826c-9.124-5.268-12.25-16.935-6.983-26.059l5.489-9.507
	c5.268-9.124,16.935-12.25,26.059-6.983l9.073,5.238c9.124,5.268,12.25,16.935,6.983,26.059l-5.077,8.794
	C135.747,126.173,123.576,129.434,114.058,123.939z"/>
<path style="fill:#F7CEC9;" d="M117.59,117.992l-8.794-5.077c-9.124-5.268-12.25-16.935-6.983-26.059l2.03-3.517
	c5.268-9.124,16.935-12.25,26.059-6.983l9.507,5.489c9.124,5.268,12.25,16.935,6.983,26.059l-1.619,2.803
	C139.279,120.226,127.108,123.487,117.59,117.992z"/>
<path style="fill:#F7B7BA;" d="M120.555,103.962l-2.358-1.362c-5.016-2.896-6.735-9.311-3.839-14.327l3.07-5.317
	c2.896-5.016,9.311-6.735,14.327-3.839l2.358,1.362c5.016,2.896,6.735,9.311,3.839,14.327l-3.07,5.317
	C131.986,105.139,125.572,106.858,120.555,103.962z"/>
<path style="fill:#F7CEC9;" d="M135.245,177.621l-4.295,0.508c-2.568,0.304-4.896-1.532-5.2-4.101l-2.941-24.883
	c-0.304-2.568,1.532-4.896,4.101-5.2l4.295-0.508c2.568-0.304,4.896,1.532,5.2,4.101l2.941,24.883
	C139.649,174.99,137.813,177.318,135.245,177.621z"/>
<path style="fill:#F7CEC9;" d="M97.547,177.707l-0.273,0.039c-3.668,0.519-7.062-2.034-7.581-5.702l-3.455-24.423
	c-0.519-3.668,2.034-7.062,5.702-7.581l0.273-0.039c3.668-0.519,7.062,2.034,7.581,5.702l3.455,24.423
	C103.767,173.794,101.215,177.188,97.547,177.707z"/>
<path style="fill:#04334D;" d="M104.436,177.5l-1.152-7.66l-13.745,0.351l1.09,9.563C90.63,179.753,105.261,181.111,104.436,177.5z"
	/>
<path style="fill:#04334D;" d="M101.737,180.534H82.882c-1.491,0-2.7-1.209-2.7-2.7v-1.725c0-1.491,1.209-2.7,2.7-2.7h18.854
	c1.491,0,2.7,1.209,2.7,2.7v1.725C104.436,179.326,103.228,180.534,101.737,180.534z"/>
<path style="fill:#04334D;" d="M140.137,177.5l-1.152-7.66l-13.745,0.351l0.749,7.644C125.99,177.835,140.962,181.111,140.137,177.5
	z"/>
<path style="fill:#04334D;" d="M147.544,180.534H128.69c-1.491,0-2.7-1.209-2.7-2.7v-1.725c0-1.491,1.209-2.7,2.7-2.7h18.854
	c1.491,0,2.7,1.209,2.7,2.7v1.725C150.244,179.326,149.035,180.534,147.544,180.534z"/>
<ellipse transform="matrix(0.5913 -0.8065 0.8065 0.5913 -40.2427 128.0657)" style="fill:#F595A9;" cx="106.227" cy="103.736" rx="1.365" ry="1.365"/>
<ellipse transform="matrix(0.5913 -0.8065 0.8065 0.5913 -42.3296 145.6355)" style="fill:#F595A9;" cx="122.517" cy="114.58" rx="1.365" ry="1.365"/>
<path style="fill:#F7CEC9;" d="M132.283,125.952l-2.895,3.34c-0.342,0.395-0.94,0.438-1.335,0.095l-0.475-0.411
	c-0.395-0.342-0.438-0.94-0.095-1.335l2.895-3.34c0.342-0.395,0.94-0.438,1.335-0.095l0.475,0.411
	C132.582,124.96,132.625,125.557,132.283,125.952z"/>
<path style="fill:#F7CEC9;" d="M129.46,129.16l-1.902,3.99c-0.225,0.472-0.789,0.672-1.261,0.447l-0.567-0.27
	c-0.472-0.225-0.672-0.789-0.447-1.261l1.902-3.99c0.225-0.472,0.789-0.672,1.261-0.447l0.567,0.27
	C129.485,128.123,129.685,128.688,129.46,129.16z"/>
<path style="fill:#F7CEC9;" d="M133.777,127.752l-2.156,3.859c-0.255,0.456-0.831,0.619-1.287,0.364l-0.548-0.306
	c-0.456-0.255-0.619-0.831-0.364-1.287l2.156-3.859c0.255-0.456,0.831-0.619,1.287-0.364l0.548,0.306
	C133.868,126.72,134.032,127.296,133.777,127.752z"/>
<path style="fill:#F7CEC9;" d="M131.664,131.466l-1.052,4.293c-0.124,0.508-0.637,0.818-1.144,0.694l-0.61-0.149
	c-0.508-0.124-0.818-0.637-0.694-1.144l1.052-4.293c0.124-0.508,0.637-0.818,1.144-0.694l0.61,0.149
	C131.478,130.447,131.788,130.959,131.664,131.466z"/>
<path style="fill:#F7CEC9;" d="M136.596,128.417l-2.156,3.859c-0.255,0.456-0.831,0.619-1.287,0.364l-0.548-0.306
	c-0.456-0.255-0.619-0.831-0.364-1.287l2.156-3.859c0.255-0.456,0.831-0.619,1.287-0.364l0.548,0.306
	C136.688,127.385,136.851,127.961,136.596,128.417z"/>
<path style="fill:#F7CEC9;" d="M134.484,132.131l-1.052,4.293c-0.124,0.508-0.637,0.818-1.144,0.694l-0.61-0.149
	c-0.508-0.124-0.818-0.637-0.694-1.144l1.052-4.293c0.124-0.508,0.637-0.818,1.144-0.694l0.61,0.149
	C134.297,131.111,134.608,131.624,134.484,132.131z"/>
<path style="fill:#F7CEC9;" d="M138.941,129.954l-1.892,3.198c-0.224,0.378-0.778,0.486-1.238,0.241l-0.553-0.294
	c-0.46-0.245-0.652-0.75-0.428-1.128l1.892-3.198c0.224-0.378,0.778-0.486,1.238-0.241l0.553,0.294
	C138.973,129.071,139.164,129.576,138.941,129.954z"/>
<path style="fill:#F7CEC9;" d="M137.083,133.03l-0.788,3.634c-0.093,0.43-0.576,0.668-1.08,0.533l-0.605-0.163
	c-0.503-0.135-0.835-0.593-0.742-1.023l0.788-3.634c0.093-0.43,0.576-0.668,1.08-0.533l0.605,0.163
	C136.844,132.143,137.177,132.601,137.083,133.03z"/>
<path style="fill:#F7CEC9;" d="M155.206,118.528L155.206,118.528c-2.541,1.081-5.477-0.102-6.558-2.643l-8.599-20.212
	c-1.081-2.541,0.102-5.477,2.643-6.558h0c2.541-1.081,5.477,0.102,6.558,2.643l8.599,20.212
	C158.93,114.511,157.747,117.447,155.206,118.528z"/>
<path style="fill:#F7CEC9;" d="M156.053,109.34l2.9,4.288c0.746,1.103,0.457,2.602-0.647,3.349l-22.483,15.205
	c-1.103,0.746-2.602,0.457-3.349-0.647l-2.022-2.989c-1.231-1.821-0.753-4.295,1.067-5.526l21.185-14.327
	C153.807,107.948,155.306,108.237,156.053,109.34z"/>
<path style="fill:#F7B7BA;" d="M114.206,63.119L114.206,63.119c1.547,2.287,0.947,5.396-1.341,6.943L94.67,82.367
	c-2.287,1.547-5.396,0.947-6.943-1.341v0c-1.547-2.287-0.947-5.396,1.341-6.943l18.195-12.305
	C109.551,60.231,112.659,60.832,114.206,63.119z"/>
<path style="fill:#04334D;" d="M124.718,45.747l6.114,9.04c1.547,2.287,0.947,5.396-1.341,6.943l-17.045,11.527
	c-2.287,1.547-5.396,0.947-6.943-1.341l-6.114-9.04c-1.547-2.287-0.947-5.396,1.341-6.943l17.045-11.527
	C120.063,42.86,123.171,43.46,124.718,45.747z"/>
<path style="fill:#04334D;" d="M128.708,38.18l2.705,3.999c1.547,2.287,0.947,5.396-1.341,6.943l-17.045,11.527
	c-2.287,1.547-5.396,0.947-6.943-1.341l-2.705-3.999c-1.547-2.287-0.947-5.396,1.341-6.943l17.045-11.527
	C124.053,35.292,127.161,35.892,128.708,38.18z"/>
<path style="fill:#04334D;" d="M130.65,23.937l2.705,3.999c1.547,2.287,0.947,5.396-1.341,6.943L120.893,42.4
	c-2.287,1.547-5.396,0.947-6.943-1.341l-2.705-3.999c-1.547-2.287-0.947-5.396,1.341-6.943l11.121-7.521
	C125.995,21.049,129.103,21.65,130.65,23.937z"/>
<path style="fill:#603A1A;" d="M122.055,101.888l-2.358-1.362c-5.016-2.896-6.735-9.311-3.839-14.327l3.07-5.317
	c2.896-5.016,9.311-6.735,14.327-3.839l2.358,1.362c5.016,2.896,6.735,9.311,3.839,14.327l-3.07,5.317
	C133.486,103.065,127.072,104.784,122.055,101.888z"/>
<path style="fill:#F7B7BA;" d="M173.402,59.071l6.186,3.571c0.683,0.395,0.917,1.268,0.523,1.952l-12.842,22.243
	c-0.395,0.683-1.268,0.917-1.952,0.523l-7.423-4.286l13.556-23.48C171.845,58.911,172.719,58.676,173.402,59.071z"/>
<path style="fill:#F7B7BA;" d="M185.778,37.937L185.778,37.937c2.545,1.071,3.74,4.003,2.669,6.548l-8.519,20.246
	c-1.071,2.545-4.003,3.74-6.548,2.669h0c-2.545-1.071-3.74-4.003-2.669-6.548l8.519-20.246
	C180.301,38.061,183.233,36.866,185.778,37.937z"/>
<path style="fill:#F7CEC9;" d="M247.682,45.932L247.682,45.932c-0.47,2.721-3.058,4.546-5.779,4.075l-21.644-3.741
	c-2.721-0.47-4.546-3.058-4.075-5.779l0,0c0.47-2.721,3.058-4.546,5.779-4.075l21.644,3.741
	C246.328,40.624,248.153,43.211,247.682,45.932z"/>
<path style="fill:#F7CEC9;" d="M269.026,44.228l-0.215,4.691c-0.067,1.463-1.308,2.595-2.771,2.528l-23.154-1.062
	c-1.463-0.067-2.595-1.308-2.528-2.771l0.215-4.691c0.067-1.463,1.308-2.595,2.771-2.528l23.154,1.062
	C267.961,41.524,269.093,42.765,269.026,44.228z"/>
<path style="fill:#F7CEC9;" d="M219.501,95.355h-22.624c-10.536,0-19.077-8.541-19.077-19.077V51.415
	c0-10.536,8.541-19.077,19.077-19.077h10.977c10.536,0,19.077,8.541,19.077,19.077v36.51
	C226.931,92.029,223.605,95.355,219.501,95.355z"/>
<path style="fill:#F7B7BA;" d="M202.667,36.133h-7.268c-3.18,0-5.758-2.578-5.758-5.758v0c0-3.18,2.578-5.758,5.758-5.758h7.268
	c3.18,0,5.758,2.578,5.758,5.758v0C208.425,33.555,205.847,36.133,202.667,36.133z"/>
<path style="fill:#F7CEC9;" d="M200.28,33.913h-2.723c-5.792,0-10.488-4.696-10.488-10.488v-9.571
	c0-5.792,4.696-10.488,10.488-10.488h2.723c5.792,0,10.488,4.696,10.488,10.488v9.571C210.768,29.217,206.073,33.913,200.28,33.913z
	"/>
<path style="fill:#F7CEC9;" d="M221.496,142.441l-4.316,0.283c-2.581,0.169-4.81-1.786-4.979-4.367l-1.836-28.046
	c-0.169-2.581,1.786-4.81,4.367-4.979l4.316-0.283c2.581-0.169,4.81,1.786,4.979,4.367l1.836,28.046
	C226.032,140.043,224.077,142.272,221.496,142.441z"/>
<path style="fill:#F7CEC9;" d="M225.837,177.389l-4.295,0.508c-2.568,0.304-4.896-1.532-5.2-4.101l-3.845-32.531
	c-0.304-2.568,1.532-4.896,4.101-5.2l4.295-0.508c2.568-0.304,4.896,1.532,5.2,4.101l3.845,32.531
	C230.242,174.757,228.406,177.085,225.837,177.389z"/>
<path style="fill:#F7CEC9;" d="M180,142.017l-3.996-1.655c-2.389-0.99-3.524-3.729-2.534-6.118l10.757-25.966
	c0.99-2.389,3.729-3.524,6.118-2.534l3.996,1.655c2.389,0.99,3.524,3.729,2.534,6.118l-10.757,25.966
	C185.128,141.872,182.389,143.007,180,142.017z"/>
<path style="fill:#F7CEC9;" d="M170.351,177.741l-0.269-0.061c-3.611-0.825-5.87-4.421-5.045-8.032l7.314-32.023
	c0.825-3.611,4.421-5.87,8.032-5.045l0.269,0.061c3.611,0.825,5.87,4.421,5.045,8.032l-7.314,32.023
	C177.558,176.307,173.962,178.566,170.351,177.741z"/>
<path style="fill:#04334D;" d="M163.092,178.161l1.853-8.111l13.963,0.351l-2.184,9.563
	C176.723,179.963,162.267,181.772,163.092,178.161z"/>
<path style="fill:#04334D;" d="M187.028,95.855l-5.675,19.36c0,0-1.683,1.961,4.543,4.265c8.333,3.083,8.279,0.556,8.279,0.556
	s0.175-1.243,1.625-1.243s13.825,0,13.825,0s1.377-0.249,1.377,1.243c0,1.492,0.623,1.649,2.06,1.649s10.125,0,10.125,0
	s1.556,0.23,1.556-1.33s0-23.447,0-23.447L187.028,95.855z"/>
<path style="fill:#04334D;" d="M174.84,180.744h-18.854c-1.491,0-2.7-1.209-2.7-2.7v-1.725c0-1.491,1.209-2.7,2.7-2.7h18.854
	c1.491,0,2.7,1.209,2.7,2.7v1.725C177.54,179.536,176.331,180.744,174.84,180.744z"/>
<path style="fill:#04334D;" d="M230.836,177.71l-1.152-7.66l-13.745,0.351l1.09,9.563
	C217.029,179.963,231.661,181.321,230.836,177.71z"/>
<path style="fill:#04334D;" d="M228.136,180.744h-18.854c-1.491,0-2.7-1.209-2.7-2.7v-1.725c0-1.491,1.209-2.7,2.7-2.7h18.854
	c1.491,0,2.7,1.209,2.7,2.7v1.725C230.836,179.536,229.627,180.744,228.136,180.744z"/>
<path style="fill:#124960;" d="M224.077,96.909h-36.329c-1.207,0-2.185-0.978-2.185-2.185l0,0c0-1.207,0.978-2.185,2.185-2.185
	h36.329c1.207,0,2.185,0.978,2.185,2.185l0,0C226.262,95.931,225.283,96.909,224.077,96.909z"/>
<circle style="fill:#F595A9;" cx="205.3" cy="56.638" r="1.365"/>
<circle style="fill:#F595A9;" cx="187.722" cy="56.638" r="1.365"/>
<path style="fill:#F7CEC9;" d="M279.041,44.152H267.5c-0.523,0-0.946-0.424-0.946-0.946v-0.628c0-0.523,0.424-0.946,0.946-0.946
	h11.541c0.522,0,0.946,0.424,0.946,0.946v0.628C279.987,43.728,279.564,44.152,279.041,44.152z"/>
<path style="fill:#F7B7BA;" d="M271.482,47.88l-4.308-0.99c-0.509-0.117-0.827-0.625-0.71-1.134l0.197-0.856
	c0.117-0.509,0.625-0.827,1.134-0.71l4.308,0.99c0.509,0.117,0.827,0.625,0.71,1.134l-0.197,0.856
	C272.499,47.679,271.992,47.997,271.482,47.88z"/>
<path style="fill:#F7B7BA;" d="M270.127,49.993l-4.308-0.99c-0.509-0.117-0.827-0.625-0.71-1.134l0.225-0.979
	c0.117-0.509,0.625-0.827,1.134-0.71l4.308,0.99c0.509,0.117,0.827,0.625,0.71,1.134l-0.225,0.979
	C271.144,49.792,270.636,50.11,270.127,49.993z"/>
<path style="fill:#F7B7BA;" d="M268.599,52.039l-4.308-0.99c-0.509-0.117-0.827-0.625-0.71-1.134l0.177-0.772
	c0.117-0.509,0.625-0.827,1.134-0.71l4.308,0.99c0.509,0.117,0.827,0.625,0.71,1.134l-0.177,0.772
	C269.616,51.838,269.108,52.156,268.599,52.039z"/>
<path style="fill:#F7CEC9;" d="M271.83,47.662l-4.308-0.99c-0.509-0.117-0.827-0.625-0.71-1.134l0.141-0.612
	c0.117-0.509,0.625-0.827,1.134-0.71l4.308,0.99c0.509,0.117,0.827,0.625,0.71,1.134l-0.141,0.612
	C272.847,47.461,272.34,47.779,271.83,47.662z"/>
<path style="fill:#F7CEC9;" d="M270.431,49.966l-4.308-0.99c-0.509-0.117-0.827-0.625-0.71-1.134l0.141-0.612
	c0.117-0.509,0.625-0.827,1.134-0.71l4.308,0.99c0.509,0.117,0.827,0.625,0.71,1.134l-0.141,0.612
	C271.448,49.765,270.94,50.083,270.431,49.966z"/>
<path style="fill:#F7CEC9;" d="M268.86,52.196l-4.308-0.99c-0.509-0.117-0.827-0.625-0.71-1.134l0.141-0.612
	c0.117-0.509,0.625-0.827,1.134-0.71l4.308,0.99c0.509,0.117,0.827,0.625,0.71,1.134l-0.141,0.612
	C269.877,51.995,269.37,52.313,268.86,52.196z"/>
<path style="fill:#F7B7BA;" d="M160.219,84.052l-1.446,4.177c-0.171,0.494-0.71,0.755-1.204,0.584l-0.594-0.206
	c-0.494-0.171-0.755-0.71-0.584-1.204l1.446-4.177c0.171-0.494,0.71-0.755,1.204-0.584l0.594,0.206
	C160.129,83.02,160.39,83.558,160.219,84.052z"/>
<path style="fill:#F7B7BA;" d="M158.791,88.079l-0.283,4.411c-0.033,0.521-0.483,0.917-1.005,0.884l-0.627-0.04
	c-0.521-0.033-0.917-0.483-0.884-1.005l0.283-4.411c0.033-0.521,0.483-0.917,1.005-0.884l0.627,0.04
	C158.429,87.108,158.824,87.558,158.791,88.079z"/>
<path style="fill:#F7B7BA;" d="M162.275,85.168l-0.568,4.384c-0.067,0.518-0.542,0.884-1.06,0.817l-0.623-0.081
	c-0.518-0.067-0.884-0.542-0.817-1.06l0.568-4.384c0.067-0.518,0.542-0.884,1.06-0.817l0.623,0.081
	C161.977,84.176,162.342,84.65,162.275,85.168z"/>
<path style="fill:#F7B7BA;" d="M161.694,89.401l0.619,4.377c0.073,0.517-0.287,0.996-0.804,1.069l-0.622,0.088
	c-0.517,0.073-0.996-0.287-1.069-0.804l-0.619-4.377c-0.073-0.517,0.287-0.996,0.804-1.069l0.622-0.088
	C161.142,88.524,161.621,88.884,161.694,89.401z"/>
<path style="fill:#F7B7BA;" d="M165.14,84.738l-0.568,4.384c-0.067,0.518-0.542,0.884-1.06,0.817l-0.623-0.081
	c-0.518-0.067-0.884-0.542-0.817-1.06l0.568-4.384c0.067-0.518,0.542-0.884,1.06-0.817l0.623,0.081
	C164.841,83.745,165.207,84.219,165.14,84.738z"/>
<path style="fill:#F7B7BA;" d="M164.559,88.971l0.619,4.377c0.073,0.517-0.287,0.996-0.804,1.069l-0.622,0.088
	c-0.517,0.073-0.996-0.287-1.069-0.804l-0.619-4.377c-0.073-0.517,0.287-0.996,0.804-1.069l0.622-0.088
	C164.007,88.093,164.486,88.453,164.559,88.971z"/>
<path style="fill:#F7B7BA;" d="M167.888,85.293l-0.568,3.672c-0.067,0.434-0.542,0.74-1.06,0.684l-0.623-0.068
	c-0.518-0.056-0.884-0.454-0.817-0.888l0.568-3.672c0.067-0.434,0.542-0.74,1.06-0.684l0.623,0.068
	C167.589,84.461,167.955,84.859,167.888,85.293z"/>
<path style="fill:#F7B7BA;" d="M167.307,88.839l0.619,3.666c0.073,0.433-0.287,0.834-0.804,0.896l-0.622,0.074
	c-0.517,0.061-0.996-0.24-1.069-0.674l-0.619-3.666c-0.073-0.433,0.287-0.834,0.804-0.896l0.622-0.074
	C166.755,88.104,167.234,88.406,167.307,88.839z"/>
<path style="fill:#F7B7BA;" d="M266.633,42.607l1.238,1.524c0.329,0.406,0.268,1.001-0.138,1.331l-0.488,0.396
	c-0.406,0.329-1.001,0.268-1.331-0.138l-1.238-1.524c-0.329-0.406-0.268-1.001,0.138-1.331l0.488-0.396
	C265.708,42.139,266.304,42.201,266.633,42.607z"/>
<path style="fill:#F7B7BA;" d="M266.633,42.607l1.238,1.524c0.329,0.406,0.268,1.001-0.138,1.331l-0.488,0.396
	c-0.406,0.329-1.001,0.268-1.331-0.138l-1.238-1.524c-0.329-0.406-0.268-1.001,0.138-1.331l0.488-0.396
	C265.708,42.139,266.304,42.201,266.633,42.607z"/>
<path style="fill:#F7B7BA;" d="M264.274,41.029l2.025,1.369c0.433,0.293,0.546,0.881,0.254,1.314l-0.352,0.52
	c-0.293,0.433-0.881,0.546-1.314,0.254l-2.025-1.369c-0.433-0.293-0.546-0.881-0.254-1.314l0.352-0.52
	C263.253,40.85,263.842,40.736,264.274,41.029z"/>
<circle style="fill:#F7B7BA;" cx="263.14" cy="42.799" r="2.104"/>
<path style="fill:#F7B7BA;" d="M157.493,80.225l-1.816,2.235c-0.329,0.406-0.268,1.001,0.138,1.331l0.488,0.396
	c0.406,0.329,1.001,0.268,1.331-0.138l1.816-2.235c0.329-0.406,0.268-1.001-0.138-1.331l-0.488-0.396
	C158.418,79.758,157.823,79.819,157.493,80.225z"/>
<path style="fill:#F7B7BA;" d="M159.751,78.586l-2.025,1.369c-0.433,0.293-0.546,0.881-0.254,1.314l0.352,0.52
	c0.293,0.433,0.881,0.546,1.314,0.254l2.025-1.369c0.433-0.293,0.546-0.881,0.254-1.314l-0.352-0.52
	C160.772,78.407,160.184,78.293,159.751,78.586z"/>
<circle style="fill:#F7B7BA;" cx="160.885" cy="80.356" r="2.104"/>
<path style="fill:#603A1A;" d="M189.396,16.721c0,0-0.667-11.292,9.292-11.292s9.95,2.09,9.95,2.09s-1.95-4.382-10.408-4.382
	c-8.458,0-10.458,6.25-10.75,7c-0.292,0.75-0.625,2.708-0.625,5.5S189.396,16.721,189.396,16.721z"/>
<circle style="fill:#F7CEC9;" cx="187.069" cy="18.64" r="3.267"/>
<circle style="fill:#603A1A;" cx="197.746" cy="17.436" r="1.203"/>
<circle style="fill:#603A1A;" cx="205.3" cy="17.436" r="1.203"/>
<path style="fill:#FFFFFF;" d="M196.883,26.397c0-1.755,1.032-3.177,2.305-3.177h4.4c1.273,0,2.305,1.422,2.305,3.177"/>
<path style="fill:#ED5E49;" d="M282.915,259.933H32.451c-15.471,0-28.013-12.542-28.013-28.013V209.38
	c0-15.471,12.542-28.013,28.013-28.013h250.464c15.471,0,28.013,12.542,28.013,28.013v22.539
	C310.929,247.391,298.387,259.933,282.915,259.933z"/>
<g>
	<path style="fill:#FFFFFF;" d="M34.979,200.067h7.326c0.503,0,0.871,0.096,1.105,0.29c0.271,0.115,0.542,0.559,0.814,1.332
		l9.418,37.18l0.117,0.754c0,0.656-0.425,0.984-1.274,0.984h-5.675c-0.579,0-0.995-0.154-1.245-0.463
		c-0.252-0.309-0.434-0.696-0.55-1.159l-1.159-4.401c-0.116-0.579-0.502-0.869-1.158-0.869h-7.934c-0.542,0-0.927,0.29-1.159,0.869
		l-1.1,4.574c0,0.348-0.126,0.648-0.377,0.898c-0.251,0.252-0.686,0.434-1.303,0.55h-5.618c-0.734,0-1.1-0.367-1.1-1.1v-0.348v-0.29
		l8.954-37.18c0.116-0.696,0.309-1.119,0.581-1.275L34.979,200.067z M36.326,225.954h4.807c0.347,0,0.482-0.29,0.405-0.869
		l-2.548-10.25l-0.231-0.348l-0.174-0.231l-0.405,0.579l-2.259,10.25C35.805,225.665,35.94,225.954,36.326,225.954z"/>
	<path style="fill:#FFFFFF;" d="M58.506,200.067h10.54c5.791,0,9.865,1.525,12.22,4.574c1.544,2.009,2.317,4.614,2.317,7.818
		c0,3.938-1.285,6.891-3.852,8.86c-2.568,1.969-5.936,2.955-10.106,2.955H65.92c-0.579,0-0.869,0.29-0.869,0.869v13.435
		c0,0.773-0.174,1.304-0.521,1.594c-0.348,0.29-0.85,0.434-1.506,0.434h-4.517c-0.734,0-1.197-0.077-1.39-0.231
		c-0.426-0.308-0.638-0.907-0.638-1.796v-36.486c0-0.732,0.077-1.196,0.232-1.39C57.02,200.28,57.618,200.067,58.506,200.067z
		 M65.687,216.746h3.359c1.467,0,2.712-0.435,3.735-1.304s1.535-1.997,1.535-3.387c0-1.313-0.368-2.355-1.1-3.128
		c-0.966-0.965-2.375-1.448-4.227-1.448h-3.186c-0.463,0-0.715,0.252-0.752,0.752v7.935
		C65.051,216.515,65.262,216.708,65.687,216.746z"/>
	<path style="fill:#FFFFFF;" d="M96.019,200.067h7.326c0.503,0,0.871,0.096,1.105,0.29c0.271,0.115,0.542,0.559,0.814,1.332
		l9.418,37.18l0.117,0.754c0,0.656-0.425,0.984-1.274,0.984h-5.675c-0.579,0-0.995-0.154-1.245-0.463
		c-0.252-0.309-0.434-0.696-0.55-1.159l-1.159-4.401c-0.116-0.579-0.502-0.869-1.158-0.869h-7.934c-0.542,0-0.927,0.29-1.159,0.869
		l-1.1,4.574c0,0.348-0.126,0.648-0.377,0.898c-0.251,0.252-0.686,0.434-1.303,0.55h-5.618c-0.734,0-1.1-0.367-1.1-1.1v-0.348v-0.29
		l8.954-37.18c0.116-0.696,0.309-1.119,0.581-1.275L96.019,200.067z M97.366,225.954h4.807c0.347,0,0.482-0.29,0.405-0.869
		l-2.548-10.25l-0.231-0.348l-0.174-0.231l-0.405,0.579l-2.259,10.25C96.845,225.665,96.979,225.954,97.366,225.954z"/>
	<path style="fill:#FFFFFF;" d="M123.866,240.606h-4.346c-0.724,0-1.182-0.077-1.372-0.231c-0.42-0.308-0.629-0.907-0.629-1.796
		v-36.486c0-0.732,0.077-1.196,0.232-1.39c0.308-0.423,0.907-0.636,1.795-0.636h4.517c0.772,0,1.303,0.171,1.593,0.516
		c0.29,0.344,0.434,0.841,0.434,1.491v18.763l7.805-18.703c0.345-0.867,0.633-1.398,0.864-1.596c0.23-0.195,0.692-0.353,1.384-0.471
		h4.668c0.768,0,1.297,0.173,1.584,0.521c0.288,0.346,0.433,0.85,0.433,1.505v36.486c0,0.734-0.078,1.198-0.232,1.39
		c-0.309,0.425-0.907,0.638-1.795,0.638h-4.517c-0.812,0-1.371-0.154-1.68-0.463c-0.232-0.348-0.348-0.869-0.348-1.565v-19.863
		l-7.76,19.863c-0.229,0.734-0.563,1.256-1.001,1.565C125.057,240.452,124.514,240.606,123.866,240.606z M135.067,197.402h-9.845
		c-1.159,0-2.075-0.415-2.751-1.244c-0.676-0.831-1.014-1.671-1.014-2.519v-0.811c0-0.271,0.038-0.464,0.116-0.579
		c0.232-0.154,0.425-0.231,0.579-0.231h3.533c0.424,0,0.695,0.269,0.811,0.811c0,0.734,0.656,1.1,1.969,1.1h3.359
		c1.312,0,1.968-0.367,1.968-1.1c0-0.425,0.27-0.696,0.812-0.811h3.532c0.232,0,0.405,0.096,0.522,0.288l0.173,0.523v0.811
		c0,0.965-0.328,1.834-0.985,2.605C137.19,197.016,136.263,197.402,135.067,197.402z"/>
	<path style="fill:#FFFFFF;" d="M164.255,217.846v-15.754c0-0.732,0.076-1.196,0.231-1.39c0.308-0.423,0.907-0.636,1.795-0.636
		h4.518c0.771,0,1.303,0.173,1.592,0.521c0.29,0.346,0.434,0.85,0.434,1.505v13.726c0,1.506,0.386,2.588,1.159,3.243
		c0.617,0.502,1.409,0.754,2.375,0.754c1.312,0,2.278-0.542,2.896-1.623c0.386-0.886,0.579-1.89,0.579-3.011v-13.089
		c0-0.732,0.076-1.196,0.231-1.39c0.309-0.423,0.907-0.636,1.795-0.636h4.518c0.771,0,1.303,0.173,1.592,0.521
		c0.29,0.346,0.434,0.85,0.434,1.505v36.486c0,0.773-0.174,1.304-0.521,1.594c-0.348,0.29-0.85,0.434-1.506,0.434h-4.518
		c-0.811,0-1.371-0.154-1.68-0.463c-0.231-0.348-0.347-0.869-0.347-1.565v-11.524c0-0.271-0.117-0.464-0.348-0.579l-1.1,0.404
		l-1.68,0.579l-1.564,0.348l-1.68,0.117c-2.471,0-4.517-0.638-6.139-1.913C165.277,224.313,164.255,221.591,164.255,217.846z"/>
	<path style="fill:#FFFFFF;" d="M217.881,200.067h17.2c0.772,0,1.303,0.175,1.593,0.523c0.29,0.35,0.434,0.852,0.434,1.512v30.278
		v0.698h0.646h1.293c0.744,0,1.214,0.077,1.41,0.231c0.431,0.307,0.646,0.903,0.646,1.788v10.903c0,0.77-0.174,1.299-0.521,1.587
		c-0.348,0.288-0.85,0.432-1.506,0.432h-4.227c-0.773,0-1.303-0.171-1.593-0.516c-0.29-0.346-0.434-0.843-0.434-1.494v-4.54
		c0-0.576-0.309-0.862-0.926-0.862h-14.073c-0.695,0-1.042,0.363-1.042,1.092v4.31c0,0.764-0.174,1.292-0.522,1.58
		c-0.347,0.286-0.849,0.43-1.506,0.43h-4.227c-0.773,0-1.303-0.173-1.593-0.519c-0.29-0.346-0.434-0.845-0.434-1.5v-10.903
		c0-0.807,0.154-1.345,0.464-1.614c0.424-0.269,0.945-0.404,1.564-0.404h0.521c0.501,0,1.003-0.617,1.506-1.853l0.695-2.955
		c0.772-3.705,1.428-7.933,1.969-12.682l0.347-4.576l0.117-4.691l0.173-4.574c0-0.773,0.174-1.255,0.522-1.448L217.881,200.067z
		 M228.537,232.266V208.29c0-0.463-0.231-0.694-0.695-0.694h-2.896c-0.386,0-0.637,0.231-0.753,0.694l-0.29,3.59
		c0,5.908-0.347,10.019-1.042,12.336c-0.811,2.663-1.448,5.328-1.911,7.992v0.463c0,0.233,0.269,0.368,0.811,0.406h5.965
		C228.151,233.077,228.421,232.808,228.537,232.266z"/>
	<path style="fill:#FFFFFF;" d="M244.231,206.653v-5.052c0-0.783,0.579-1.35,1.737-1.704l2.317-0.295h3.648
		c5.598,0,9.382,1.506,11.352,4.518c1.159,1.853,1.737,5.001,1.737,9.44v12.451c0,6.449-1.294,10.735-3.88,12.857
		c-1.776,1.469-4.943,2.201-9.498,2.201c-3.243,0-5.424-0.25-6.544-0.752c-0.734-0.308-1.1-0.829-1.1-1.563v-5.27l0.174-0.638
		c0.116-0.231,0.444-0.348,0.985-0.348l2.316,0.326l1.333,0.195h1.911c1.854,0,3.185-0.29,3.996-0.869
		c1.159-0.888,1.738-2.722,1.738-5.501v-3.301c0-0.579-0.271-0.869-0.811-0.869h-8.456c-0.772,0-1.158-0.425-1.158-1.273v-5.676
		c0-0.771,0.386-1.159,1.158-1.159h8.456c0.424,0,0.695-0.312,0.811-0.941v-1.412c0-1.803-0.416-3.117-1.245-3.94
		c-0.831-0.823-2.095-1.236-3.794-1.236c-1.197,0-2.027,0.069-2.49,0.204c-1.12,0.404-2.356,0.607-3.706,0.607l-0.695-0.177
		c-0.039-0.077-0.058-0.135-0.058-0.177C244.347,206.988,244.269,206.772,244.231,206.653z"/>
	<path style="fill:#FFFFFF;" d="M269.887,206.653v-5.052c0-0.783,0.579-1.35,1.737-1.704l2.317-0.295h3.648
		c5.598,0,9.382,1.506,11.352,4.518c1.159,1.853,1.737,5.001,1.737,9.44v12.451c0,6.449-1.294,10.735-3.88,12.857
		c-1.776,1.469-4.943,2.201-9.498,2.201c-3.243,0-5.424-0.25-6.544-0.752c-0.734-0.308-1.1-0.829-1.1-1.563v-5.27l0.174-0.638
		c0.116-0.231,0.444-0.348,0.985-0.348l2.316,0.326l1.333,0.195h1.911c1.854,0,3.185-0.29,3.996-0.869
		c1.159-0.888,1.738-2.722,1.738-5.501v-3.301c0-0.579-0.271-0.869-0.811-0.869h-8.456c-0.772,0-1.158-0.425-1.158-1.273v-5.676
		c0-0.771,0.386-1.159,1.158-1.159h8.456c0.424,0,0.695-0.312,0.811-0.941v-1.412c0-1.803-0.416-3.117-1.245-3.94
		c-0.831-0.823-2.095-1.236-3.794-1.236c-1.197,0-2.027,0.069-2.49,0.204c-1.12,0.404-2.356,0.607-3.706,0.607l-0.695-0.177
		c-0.039-0.077-0.058-0.135-0.058-0.177C270.002,206.988,269.924,206.772,269.887,206.653z"/>
</g>
</svg>
