<?xml version="1.0" encoding="iso-8859-1"?>
<!-- Generator: Adobe Illustrator 19.2.0, SVG Export Plug-In . SVG Version: 6.00 Build 0)  -->
<svg version="1.1" id="Layer_1" xmlns="http://www.w3.org/2000/svg" xmlns:xlink="http://www.w3.org/1999/xlink" x="0px" y="0px"
	 viewBox="0 0 322.93 270" style="enable-background:new 0 0 322.93 270;" xml:space="preserve">
<g>
	<path style="fill:#AF8B32;" d="M240.202,182.945l-23.329,8.959c-4.669,1.793-9.908-0.538-11.701-5.207l-2.95-7.681
		c-1.793-4.669,0.538-9.908,5.207-11.701l23.329-8.959c4.669-1.793,9.908,0.538,11.701,5.207l2.95,7.681
		C247.202,175.913,244.871,181.152,240.202,182.945z"/>
	<path style="fill:#99752C;" d="M243.129,180.94l-5.472,3.496c-4.033,2.577-9.392,1.397-11.97-2.637l-4.849-7.59
		c-2.577-4.033-1.397-9.392,2.637-11.969l5.472-3.496c4.033-2.577,9.392-1.397,11.969,2.637l4.849,7.59
		C248.343,173.004,247.162,178.362,243.129,180.94z"/>
	<path style="fill:#AF8B32;" d="M181.361,191.404h35.397v-53.402c0-14.221-11.529-25.75-25.75-25.75h-9.647V191.404z"/>
	<path style="fill:#D3B155;" d="M209.584,191.404H97.385V124.7c0-18.995,15.398-34.393,34.393-34.393h30.578
		c26.083,0,47.228,21.145,47.228,47.228V191.404z"/>
	<path style="fill:#F7B7BA;" d="M159.669,116.12l-10.351-10.351c-3.84-3.84-3.84-10.067,0-13.907l16.258-16.258
		c3.84-3.84,10.067-3.84,13.907,0l16.258,16.258c3.84,3.84,3.84,10.067,0,13.907L185.39,116.12
		C178.288,123.222,166.772,123.222,159.669,116.12z"/>
	<path style="fill:#D3B155;" d="M203.436,102.597l-17.13,17.13c-1.611,1.611-4.223,1.611-5.834,0l-6.195-6.195
		c-1.611-1.611-1.611-4.223,0-5.834l17.13-17.13c1.611-1.611,4.223-1.611,5.834,0l6.195,6.195
		C205.046,98.375,205.046,100.987,203.436,102.597z"/>
	<rect x="151.224" y="116.075" style="fill:#D3B155;" width="36.073" height="17.183"/>
	<path style="fill:#F7CEC9;" d="M177.857,111.873l-14.218-14.218c-7.768-7.768-7.768-20.363,0-28.131l22.376-22.376
		c7.768-7.768,20.363-7.768,28.131,0l14.218,14.218c7.768,7.768,7.768,20.363,0,28.131l-22.376,22.376
		C198.22,119.642,185.626,119.642,177.857,111.873z"/>
	<path style="fill:#F7CEC9;" d="M177.857,111.873l-14.218-14.218c-7.768-7.768-7.768-20.363,0-28.131l22.376-22.376
		c7.768-7.768,20.363-7.768,28.131,0l14.218,14.218c7.768,7.768,7.768,20.363,0,28.131l-22.376,22.376
		C198.22,119.642,185.626,119.642,177.857,111.873z"/>
	<path style="fill:#DCDBDB;" d="M174.893,51.512l6.274-6.274c10.098-10.098,26.471-10.098,36.569,0l8.851,8.851
		c9.467,9.467,9.504,24.217,1.221,34.373c-0.109,0.134,3.656-5.206,0.11-13.225c-4.724-10.684-18.742-24.663-31.388-25.889
		c-3.909-0.379-10.825,4.181-15.579,10.94C172.518,72.277,170.373,56.031,174.893,51.512z"/>
	<path style="fill:#D3B155;" d="M156.467,118.178l-17.13-17.13c-1.611-1.611-1.611-4.223,0-5.834l6.195-6.195
		c1.611-1.611,4.223-1.611,5.834,0l17.13,17.13c1.611,1.611,1.611,4.223,0,5.834l-6.195,6.195
		C160.69,119.789,158.078,119.789,156.467,118.178z"/>
	<path style="fill:none;stroke:#AF8B32;stroke-miterlimit:10;" d="M179.704,113.44l-2.814,2.814h-29.812
		c0,0,0.81,22.105-22.105,22.105"/>
	<path style="fill:#F595A9;" d="M190.907,100.323c-1.706,1.706-4.091,2.085-5.329,0.848l-4.277-4.277
		c-1.237-1.237-0.858-3.623,0.848-5.329"/>
	<path style="fill:#BFBFBF;" d="M229.071,78.724c0,0-1.025-8.483-14.256-19.265c-7.046-5.742-19.546-1.718-24.701-10.224
		s2.004-10.513,2.004-10.513s11.086-4.195,20.006,2.257c8.92,6.452,16.354,15.23,16.354,15.23s6.784,6.988,5.383,18.027
		c-1.144,9.014-6.116,14.777-6.116,14.777S229.673,81.043,229.071,78.724z"/>
	<path style="fill:#FFFFFF;stroke:#9B8579;stroke-width:0.75;stroke-miterlimit:10;" d="M202.982,78.124l-4.217,4.217
		c-3.187,3.187-8.354,3.187-11.54,0l0,0c-3.187-3.187-3.187-8.354,0-11.54l4.217-4.217"/>
	<path style="fill:#FFFFFF;stroke:#9B8579;stroke-width:0.75;stroke-miterlimit:10;" d="M217.207,92.425l-4.217,4.217
		c-3.187,3.187-8.354,3.187-11.54,0v0c-3.187-3.187-3.187-8.354,0-11.54l4.217-4.217"/>
	
		<rect x="168.793" y="73.909" transform="matrix(0.7071 0.7071 -0.7071 0.7071 111.2319 -119.5741)" style="fill:#9B8579;" width="62.323" height="1.146"/>
	<circle style="fill:#F7CEC9;" cx="172.416" cy="59.673" r="10.015"/>
	<path style="fill:#E2E2E2;" d="M202.906,71.871l-6.45-6.45c-0.456-0.456-0.456-1.194,0-1.65l0.618-0.618
		c0.456-0.456,1.194-0.456,1.65,0l6.45,6.45c0.456,0.456,0.456,1.194,0,1.65l-0.618,0.618
		C204.1,72.327,203.362,72.327,202.906,71.871z"/>
	<path style="fill:#E2E2E2;" d="M218.685,87.635l-6.45-6.45c-0.456-0.456-0.456-1.194,0-1.65l0.618-0.618
		c0.456-0.456,1.194-0.456,1.65,0l6.45,6.45c0.456,0.456,0.456,1.194,0,1.65l-0.618,0.618
		C219.879,88.091,219.141,88.091,218.685,87.635z"/>
	<path style="fill:#DCDBDB;" d="M193.928,97.988L193.928,97.988c1.563,1.563,1.792,3.869,0.511,5.15l-15.591,15.591
		c-1.281,1.281-3.587,1.052-5.15-0.511l0,0"/>
	<path style="fill:#DCDBDB;" d="M179.073,88.751c1.563-1.563,3.593-2.069,4.533-1.128l11.442,11.442
		c0.94,0.94,0.435,2.97-1.128,4.533"/>
	<path style="fill:#AF8B32;" d="M132.782,191.404H97.385v-73.558c0-11.661,9.453-21.114,21.114-21.114h9.647
		c2.56,0,4.636,2.076,4.636,4.636V191.404z"/>
	<path style="fill:#AF8B32;" d="M156.774,191.404h-50.333c-5.002,0-9.056-4.055-9.056-9.056v-8.228c0-5.002,4.055-9.056,9.056-9.056
		h50.333c5.002,0,9.056,4.055,9.056,9.056v8.228C165.83,187.349,161.775,191.404,156.774,191.404z"/>
	<path style="fill:#99752C;" d="M157.163,191.404h-6.494c-4.786,0-8.667-3.88-8.667-8.667v-9.007c0-4.786,3.88-8.667,8.667-8.667
		h6.494c4.786,0,8.667,3.88,8.667,8.667v9.007C165.83,187.524,161.95,191.404,157.163,191.404z"/>
	<path style="fill:#C2E3EA;" d="M183.778,191.545h46.34c1.404,0,2.731-0.895,3.6-2.429l16.251-28.695
		c1.778-3.139,0.17-7.746-2.704-7.746h-49.243c-1.055,0-2.051,0.672-2.704,1.825l-15.14,26.733
		C177.812,185.412,179.953,191.545,183.778,191.545z"/>
	<path style="fill:#8FC0C6;" d="M230.531,191.545h-46.34c-1.404,0-2.731-0.757-3.6-2.053l-16.251-24.256
		c-1.778-2.653-0.17-6.547,2.704-6.547h49.243c1.055,0,2.051,0.568,2.704,1.542l15.14,22.597
		C236.497,186.361,234.356,191.545,230.531,191.545z"/>
	<path style="fill:#F7CEC9;" d="M145.873,174.836l1.244,9.015c0.372,2.698,2.862,4.583,5.56,4.211l14.68-2.026
		c2.698-0.372,4.583-2.862,4.211-5.56l-1.44-10.43c-0.265-1.916-2.033-3.256-3.949-2.991l-16.095,2.222
		C147.385,169.649,145.5,172.138,145.873,174.836z"/>
	<path style="fill:#F7CEC9;" d="M166.546,172.265h12.416c0.523,0,0.946-0.424,0.946-0.946v-2.887c0-0.523-0.424-0.946-0.946-0.946
		h-12.416c-0.523,0-0.946,0.424-0.946,0.946v2.887C165.6,171.841,166.023,172.265,166.546,172.265z"/>
	<path style="fill:#F7CEC9;" d="M177.128,171.763l9.559,3.194c0.496,0.166,1.032-0.102,1.197-0.598l0.915-2.739
		c0.166-0.496-0.102-1.032-0.598-1.197l-9.559-3.194c-0.496-0.166-1.032,0.102-1.197,0.598l-0.915,2.739
		C176.365,171.061,176.632,171.597,177.128,171.763z"/>
	<path style="fill:#F7CEC9;" d="M169.509,175.626l9.746,2.568c0.505,0.133,1.023-0.169,1.156-0.674l0.736-2.792
		c0.133-0.505-0.169-1.023-0.674-1.156l-9.746-2.568c-0.505-0.133-1.023,0.169-1.156,0.674l-0.736,2.792
		C168.702,174.976,169.003,175.493,169.509,175.626z"/>
	<path style="fill:#F7CEC9;" d="M177.447,177.421l8.711,5.069c0.452,0.263,1.031,0.11,1.294-0.342l1.452-2.496
		c0.263-0.452,0.11-1.031-0.342-1.294l-8.711-5.069c-0.452-0.263-1.031-0.11-1.294,0.342l-1.452,2.496
		C176.842,176.579,176.995,177.158,177.447,177.421z"/>
	<path style="fill:#F7CEC9;" d="M238.781,170.697l8.711,5.069c0.452,0.263,1.031,0.11,1.294-0.342l1.452-2.496
		c0.263-0.452,0.11-1.031-0.342-1.294l-8.711-5.069c-0.452-0.263-1.031-0.11-1.294,0.342l-1.452,2.496
		C238.176,169.855,238.329,170.434,238.781,170.697z"/>
	<path style="fill:#F7CEC9;" d="M236.186,175.221l8.711,5.069c0.452,0.263,1.031,0.11,1.294-0.342l1.452-2.496
		c0.263-0.452,0.11-1.031-0.342-1.294l-8.711-5.069c-0.452-0.263-1.031-0.11-1.294,0.342l-1.452,2.496
		C235.581,174.379,235.734,174.959,236.186,175.221z"/>
	<path style="fill:#F7CEC9;" d="M233.265,179.632l8.711,5.069c0.452,0.263,1.031,0.11,1.294-0.342l1.452-2.496
		c0.263-0.452,0.11-1.031-0.342-1.294l-8.711-5.069c-0.452-0.263-1.031-0.11-1.294,0.342l-1.452,2.496
		C232.66,178.79,232.813,179.369,233.265,179.632z"/>
	<path style="fill:#F7CEC9;" d="M241.742,166.172l8.711,5.069c0.452,0.263,1.031,0.11,1.294-0.342l1.452-2.496
		c0.263-0.452,0.11-1.031-0.342-1.294l-8.711-5.069c-0.452-0.263-1.031-0.11-1.294,0.342l-1.452,2.496
		C241.137,165.33,241.29,165.909,241.742,166.172z"/>
	<path style="fill:#F7CEC9;" d="M166.705,180.351l9.746,2.568c0.505,0.133,1.023-0.169,1.156-0.674l0.736-2.792
		c0.133-0.505-0.169-1.023-0.674-1.156l-9.746-2.568c-0.505-0.133-1.023,0.169-1.156,0.674l-0.736,2.792
		C165.898,179.7,166.199,180.217,166.705,180.351z"/>
	<path style="fill:#F7CEC9;" d="M174.643,182.145l8.711,5.069c0.452,0.263,1.031,0.11,1.294-0.342l1.452-2.496
		c0.263-0.452,0.11-1.031-0.342-1.294l-8.711-5.069c-0.452-0.263-1.031-0.11-1.294,0.342l-1.452,2.496
		C174.038,181.303,174.191,181.882,174.643,182.145z"/>
	<path style="fill:#F7CEC9;" d="M166.537,185.79l6.856,1.627c0.81,0.192,1.688-0.422,1.959-1.373l0.327-1.143
		c0.272-0.95-0.165-1.877-0.976-2.069l-6.856-1.627c-0.81-0.192-1.688,0.422-1.959,1.373l-0.327,1.143
		C165.289,184.672,165.726,185.598,166.537,185.79z"/>
	<path style="fill:#F7CEC9;" d="M173.181,187.304l5.998,3.708c0.709,0.438,1.671,0.092,2.148-0.773l0.574-1.04
		c0.477-0.865,0.29-1.921-0.419-2.36l-5.998-3.708c-0.709-0.438-1.671-0.092-2.148,0.773l-0.574,1.04
		C172.284,185.81,172.472,186.866,173.181,187.304z"/>
	<path style="fill:#F7CEC9;" d="M164.244,163.19l6.367-3.27c0.465-0.239,1.035-0.055,1.274,0.409l1.319,2.568
		c0.239,0.465,0.055,1.035-0.409,1.274l-6.367,3.27c-0.465,0.239-1.035,0.055-1.274-0.409l-1.319-2.568
		C163.596,163.999,163.779,163.429,164.244,163.19z"/>
	<path style="fill:#F7CEC9;" d="M160.464,166.94l4.553-4.4c0.376-0.363,0.975-0.353,1.338,0.023l2.007,2.076
		c0.363,0.376,0.353,0.975-0.023,1.338l-4.553,4.4c-0.376,0.363-0.975,0.353-1.338-0.023l-2.007-2.076
		C160.078,167.902,160.088,167.303,160.464,166.94z"/>
	
		<ellipse transform="matrix(0.3769 -0.9263 0.9263 0.3769 -55.9422 256.7661)" style="fill:#F7CEC9;" cx="162.868" cy="169.962" rx="3.99" ry="3.99"/>
	<path style="fill:#DCDBDB;" d="M161.155,112.252c-1.563-1.563-1.622-4.04-0.131-5.531l18.149-18.149
		c1.491-1.491,3.968-1.433,5.531,0.131"/>
	<rect x="151.008" y="112.925" style="fill:#AF8B32;" width="1.443" height="6.93"/>
	<rect x="154.234" y="112.925" style="fill:#AF8B32;" width="1.443" height="6.93"/>
</g>
<path style="fill:#ED5E49;" d="M294.917,267.579H28.927c-15.471,0-28.013-12.542-28.013-28.013v-22.539
	c0-15.471,12.542-28.013,28.013-28.013h265.99c15.471,0,28.013,12.542,28.013,28.013v22.539
	C322.93,255.038,310.388,267.579,294.917,267.579z"/>
<g>
	<path style="fill:#FFFFFF;" d="M15.357,211.201h21.172c0.382,0,0.621,0.095,0.717,0.286l0.287,0.861v4.253
		c0,0.669-0.335,1.004-1.004,1.004h-6.213c-0.573,0-0.86,0.286-0.86,0.86v24.516c0,0.605-0.065,0.989-0.191,1.147
		c-0.256,0.351-0.75,0.526-1.482,0.526h-3.728c-0.669,0-1.131-0.127-1.386-0.382c-0.191-0.287-0.286-0.717-0.286-1.291v-24.516
		c0-0.574-0.287-0.86-0.861-0.86h-6.021c-0.798,0-1.195-0.318-1.195-0.956v-4.54C14.306,211.503,14.655,211.201,15.357,211.201z"/>
	<path style="fill:#FFFFFF;" d="M47.078,211.201h6.045c0.416,0,0.72,0.079,0.912,0.239c0.223,0.095,0.447,0.461,0.672,1.099
		l7.771,30.681l0.096,0.622c0,0.542-0.351,0.812-1.051,0.812h-4.684c-0.478,0-0.82-0.127-1.027-0.382
		c-0.208-0.255-0.359-0.574-0.454-0.956l-0.956-3.632c-0.096-0.478-0.414-0.717-0.956-0.717h-6.547
		c-0.447,0-0.765,0.239-0.956,0.717l-0.908,3.775c0,0.287-0.105,0.535-0.311,0.741c-0.208,0.208-0.566,0.358-1.075,0.454h-4.636
		c-0.605,0-0.908-0.303-0.908-0.908v-0.287v-0.239l7.388-30.681c0.096-0.574,0.256-0.924,0.479-1.052L47.078,211.201z
		 M48.189,232.563h3.967c0.286,0,0.397-0.239,0.334-0.717l-2.103-8.459l-0.191-0.287l-0.143-0.191l-0.335,0.478l-1.864,8.459
		C47.759,232.324,47.87,232.563,48.189,232.563z"/>
	<path style="fill:#FFFFFF;" d="M66.493,211.201h3.727c0.638,0,1.076,0.143,1.315,0.43c0.239,0.286,0.358,0.701,0.358,1.242v9.224
		c0,0.32,0.031,0.543,0.096,0.669c0.095,0.065,0.191,0.112,0.286,0.144c0.096,0.031,0.208,0.064,0.335,0.095h5.209h0.335
		c0.287-0.16,0.43-0.479,0.43-0.959v-9.166c0-0.608,0.064-0.991,0.191-1.151c0.255-0.352,0.748-0.528,1.482-0.528h3.728
		c0.636,0,1.075,0.143,1.314,0.43c0.239,0.286,0.358,0.701,0.358,1.242v30.108c0,0.605-0.064,0.989-0.191,1.147
		c-0.256,0.351-0.75,0.526-1.481,0.526h-3.728c-0.669,0-1.131-0.127-1.386-0.382c-0.191-0.287-0.287-0.717-0.287-1.291V230.46
		c0-0.478-0.256-0.733-0.765-0.765H72.61c-0.478,0-0.717,0.239-0.717,0.717v12.569c0,0.638-0.143,1.076-0.43,1.315
		c-0.287,0.239-0.701,0.358-1.243,0.358h-3.727c-0.607,0-0.989-0.064-1.147-0.191c-0.352-0.255-0.526-0.748-0.526-1.482v-30.108
		c0-0.604,0.064-0.987,0.191-1.147C65.265,211.376,65.759,211.201,66.493,211.201z"/>
	<path style="fill:#FFFFFF;" d="M95.645,211.201h14.194c0.636,0,1.075,0.144,1.314,0.431c0.239,0.289,0.359,0.703,0.359,1.247
		v24.986v0.576h0.533h1.066c0.614,0,1.003,0.064,1.164,0.191c0.356,0.253,0.533,0.745,0.533,1.475v8.998
		c0,0.635-0.143,1.072-0.43,1.31c-0.287,0.238-0.701,0.356-1.243,0.356h-3.488c-0.638,0-1.076-0.141-1.315-0.426
		c-0.239-0.286-0.358-0.696-0.358-1.233v-3.746c0-0.475-0.256-0.711-0.765-0.711H95.597c-0.574,0-0.86,0.3-0.86,0.901v3.557
		c0,0.631-0.144,1.066-0.431,1.304c-0.286,0.236-0.7,0.355-1.242,0.355h-3.489c-0.638,0-1.075-0.143-1.314-0.429
		c-0.239-0.286-0.359-0.697-0.359-1.237v-8.998c0-0.666,0.127-1.11,0.383-1.332c0.349-0.222,0.779-0.334,1.29-0.334h0.43
		c0.414,0,0.829-0.509,1.243-1.529l0.573-2.438c0.638-3.058,1.178-6.547,1.625-10.466l0.287-3.776l0.096-3.871l0.143-3.775
		c0-0.638,0.143-1.035,0.43-1.195L95.645,211.201z M104.438,237.772v-19.786c0-0.382-0.191-0.573-0.573-0.573h-2.39
		c-0.318,0-0.525,0.191-0.621,0.573l-0.239,2.963c0,4.875-0.287,8.268-0.86,10.18c-0.669,2.198-1.195,4.397-1.577,6.595v0.382
		c0,0.192,0.222,0.304,0.669,0.335h4.922C104.12,238.441,104.343,238.219,104.438,237.772z"/>
	<path style="fill:#FFFFFF;" d="M132.914,211.201h4.697c0.284,0,0.586,0.079,0.902,0.239c0.315,0.16,0.586,0.477,0.806,0.955
		l2.326,5.449c0.093,0.286,0.221,0.445,0.379,0.478l0.334-0.383l2.861-5.926l0.286-0.43c0.158-0.16,0.54-0.287,1.144-0.382h5.055
		c0.699,0,1.049,0.286,1.049,0.86c0,0.191-0.064,0.414-0.191,0.669l-6.356,13.238v0.478c0,0.191,0.062,0.399,0.19,0.622l7.124,16.01
		l0.19,0.765c0,0.542-0.318,0.812-0.953,0.812h-4.867c-0.349,0-0.652-0.048-0.905-0.143c-0.287-0.192-0.573-0.574-0.858-1.147
		l-3.864-8.029l-0.334-0.383l-0.431,0.478l-3.592,7.79c-0.191,0.478-0.366,0.765-0.526,0.86c-0.351,0.383-0.767,0.574-1.245,0.574
		h-5.124c-0.607,0-0.909-0.287-0.909-0.86l0.191-0.765l7.36-15.867l0.239-0.812v-0.383l-0.144-0.334l-5.687-13.047l-0.143-0.574
		C131.917,211.471,132.249,211.201,132.914,211.201z"/>
	<path style="fill:#FFFFFF;" d="M156.291,216.636v-4.169c0-0.646,0.478-1.114,1.433-1.406l1.912-0.243h3.011
		c4.619,0,7.742,1.243,9.367,3.728c0.956,1.529,1.434,4.127,1.434,7.79v10.275c0,5.322-1.068,8.859-3.202,10.61
		c-1.467,1.212-4.079,1.816-7.838,1.816c-2.676,0-4.476-0.206-5.401-0.621c-0.605-0.255-0.908-0.685-0.908-1.29v-4.349l0.144-0.526
		c0.095-0.191,0.366-0.287,0.812-0.287l1.912,0.269l1.099,0.161h1.577c1.53,0,2.629-0.239,3.298-0.717
		c0.956-0.733,1.434-2.246,1.434-4.54v-2.724c0-0.478-0.223-0.717-0.669-0.717h-6.978c-0.638,0-0.956-0.351-0.956-1.051v-4.684
		c0-0.636,0.318-0.956,0.956-0.956h6.978c0.349,0,0.573-0.257,0.669-0.776v-1.165c0-1.488-0.344-2.573-1.028-3.251
		c-0.686-0.679-1.728-1.02-3.13-1.02c-0.989,0-1.673,0.057-2.055,0.168c-0.925,0.334-1.945,0.501-3.059,0.501l-0.573-0.146
		c-0.033-0.064-0.048-0.112-0.048-0.146C156.385,216.912,156.322,216.733,156.291,216.636z"/>
	<path style="fill:#FFFFFF;" d="M178.943,211.201h8.698c4.779,0,8.141,1.259,10.084,3.775c1.274,1.658,1.912,3.807,1.912,6.452
		c0,3.25-1.061,5.687-3.179,7.312s-4.898,2.438-8.339,2.438h-3.059c-0.478,0-0.717,0.239-0.717,0.717v11.086
		c0,0.638-0.143,1.076-0.43,1.315s-0.701,0.358-1.243,0.358h-3.727c-0.607,0-0.989-0.064-1.147-0.191
		c-0.352-0.255-0.526-0.748-0.526-1.482v-30.108c0-0.604,0.064-0.987,0.191-1.147C177.715,211.376,178.209,211.201,178.943,211.201z
		 M184.869,224.964h2.772c1.211,0,2.237-0.359,3.082-1.076c0.844-0.717,1.267-1.648,1.267-2.795c0-1.083-0.304-1.943-0.908-2.581
		c-0.798-0.796-1.96-1.195-3.489-1.195h-2.629c-0.382,0-0.59,0.208-0.621,0.621v6.548
		C184.343,224.774,184.518,224.933,184.869,224.964z"/>
	<path style="fill:#FFFFFF;" d="M202.694,216.636v-4.169c0-0.646,0.478-1.114,1.434-1.406l1.912-0.243h3.01
		c4.62,0,7.743,1.243,9.368,3.728c0.956,1.529,1.433,4.127,1.433,7.79v10.275c0,5.322-1.068,8.859-3.202,10.61
		c-1.465,1.212-4.079,1.816-7.838,1.816c-2.676,0-4.476-0.206-5.4-0.621c-0.605-0.255-0.908-0.685-0.908-1.29v-4.349l0.143-0.526
		c0.096-0.191,0.366-0.287,0.813-0.287l1.911,0.269l1.1,0.161h1.577c1.529,0,2.628-0.239,3.297-0.717
		c0.956-0.733,1.434-2.246,1.434-4.54v-2.724c0-0.478-0.223-0.717-0.669-0.717h-6.978c-0.636,0-0.955-0.351-0.955-1.051v-4.684
		c0-0.636,0.318-0.956,0.955-0.956h6.978c0.351,0,0.574-0.257,0.669-0.776v-1.165c0-1.488-0.342-2.573-1.027-3.251
		c-0.686-0.679-1.73-1.02-3.131-1.02c-0.987,0-1.672,0.057-2.055,0.168c-0.924,0.334-1.943,0.501-3.058,0.501l-0.574-0.146
		c-0.033-0.064-0.048-0.112-0.048-0.146C202.79,216.912,202.725,216.733,202.694,216.636z"/>
	<path style="fill:#FFFFFF;" d="M225.204,211.201h15.722c0.509,0,0.908,0.079,1.195,0.239c0.287,0.16,0.43,0.366,0.43,0.621v4.301
		c0,0.765-0.366,1.147-1.099,1.147h-10.084c-0.382,0-0.59,0.208-0.621,0.621v24.757c0,0.7-0.089,1.155-0.263,1.362
		c-0.175,0.208-0.519,0.342-1.028,0.406h-4.444c-0.352,0-0.662-0.096-0.932-0.287c-0.272-0.191-0.407-0.588-0.407-1.195v-30.538
		c0-0.478,0.151-0.812,0.454-1.003S224.789,211.296,225.204,211.201z"/>
	<path style="fill:#FFFFFF;" d="M244.08,211.201h21.172c0.382,0,0.621,0.095,0.717,0.286l0.287,0.861v4.253
		c0,0.669-0.335,1.004-1.004,1.004h-6.213c-0.573,0-0.86,0.286-0.86,0.86v24.516c0,0.605-0.065,0.989-0.191,1.147
		c-0.256,0.351-0.75,0.526-1.482,0.526h-3.728c-0.669,0-1.131-0.127-1.386-0.382c-0.191-0.287-0.286-0.717-0.286-1.291v-24.516
		c0-0.574-0.287-0.86-0.861-0.86h-6.021c-0.798,0-1.195-0.318-1.195-0.956v-4.54C243.029,211.503,243.379,211.201,244.08,211.201z"
		/>
	<path style="fill:#FFFFFF;" d="M268.597,216.636v-4.169c0-0.646,0.478-1.114,1.434-1.406l1.912-0.243h3.01
		c4.62,0,7.743,1.243,9.368,3.728c0.956,1.529,1.433,4.127,1.433,7.79v10.275c0,5.322-1.068,8.859-3.202,10.61
		c-1.465,1.212-4.079,1.816-7.838,1.816c-2.676,0-4.476-0.206-5.4-0.621c-0.605-0.255-0.908-0.685-0.908-1.29v-4.349l0.143-0.526
		c0.096-0.191,0.366-0.287,0.813-0.287l1.911,0.269l1.1,0.161h1.577c1.529,0,2.628-0.239,3.297-0.717
		c0.956-0.733,1.434-2.246,1.434-4.54v-2.724c0-0.478-0.223-0.717-0.669-0.717h-6.978c-0.636,0-0.955-0.351-0.955-1.051v-4.684
		c0-0.636,0.318-0.956,0.955-0.956h6.978c0.351,0,0.574-0.257,0.669-0.776v-1.165c0-1.488-0.342-2.573-1.027-3.251
		c-0.686-0.679-1.73-1.02-3.131-1.02c-0.987,0-1.672,0.057-2.055,0.168c-0.923,0.334-1.943,0.501-3.058,0.501l-0.574-0.146
		c-0.033-0.064-0.048-0.112-0.048-0.146C268.693,216.912,268.628,216.733,268.597,216.636z"/>
	<path style="fill:#FFFFFF;" d="M294.814,244.654h-3.587c-0.598,0-0.976-0.064-1.133-0.191c-0.346-0.255-0.519-0.748-0.519-1.482
		v-30.108c0-0.604,0.064-0.987,0.192-1.147c0.255-0.349,0.748-0.525,1.481-0.525h3.728c0.636,0,1.075,0.141,1.314,0.426
		s0.359,0.694,0.359,1.23v15.483l6.441-15.434c0.284-0.716,0.522-1.154,0.713-1.317c0.19-0.161,0.57-0.291,1.141-0.389h3.852
		c0.634,0,1.069,0.143,1.307,0.43c0.238,0.286,0.358,0.701,0.358,1.242v30.108c0,0.605-0.065,0.989-0.192,1.147
		c-0.255,0.351-0.748,0.526-1.481,0.526h-3.728c-0.669,0-1.131-0.127-1.386-0.382c-0.191-0.287-0.287-0.717-0.287-1.291v-16.391
		l-6.404,16.391c-0.188,0.605-0.464,1.037-0.826,1.291C295.797,244.527,295.349,244.654,294.814,244.654z M304.057,209.002h-8.124
		c-0.956,0-1.713-0.342-2.27-1.027c-0.559-0.686-0.837-1.379-0.837-2.079v-0.669c0-0.223,0.031-0.383,0.096-0.478
		c0.191-0.127,0.351-0.191,0.478-0.191h2.915c0.351,0,0.574,0.222,0.669,0.669c0,0.605,0.542,0.908,1.625,0.908h2.772
		c1.083,0,1.625-0.303,1.625-0.908c0-0.351,0.222-0.574,0.669-0.669h2.915c0.192,0,0.335,0.079,0.431,0.238l0.143,0.431v0.669
		c0,0.796-0.272,1.513-0.813,2.15C305.809,208.683,305.044,209.002,304.057,209.002z"/>
</g>
</svg>
