<?xml version="1.0" encoding="utf-8"?>
<!-- Generator: Adobe Illustrator 17.0.0, SVG Export Plug-In . SVG Version: 6.00 Build 0)  -->
<!DOCTYPE svg PUBLIC "-//W3C//DTD SVG 1.1//EN" "http://www.w3.org/Graphics/SVG/1.1/DTD/svg11.dtd">
<svg version="1.1" id="Layer_1" xmlns="http://www.w3.org/2000/svg" xmlns:xlink="http://www.w3.org/1999/xlink" x="0px" y="0px"
	 width="283.465px" height="141.732px" viewBox="0 0 283.465 141.732" enable-background="new 0 0 283.465 141.732"
	 xml:space="preserve">
<g enable-background="new    ">
	<path fill="#2A2A71" d="M134.572,57.077c0-1.216,0.344-2.145,1.033-2.786c0.688-0.64,1.545-0.961,2.57-0.961
		c1.024,0,1.881,0.321,2.57,0.961c0.688,0.641,1.033,1.569,1.033,2.786v16.764c0,1.121,0.168,2.161,0.504,3.122
		c0.336,0.961,0.823,1.794,1.465,2.498c0.64,0.704,1.417,1.265,2.329,1.681c0.913,0.417,1.945,0.624,3.099,0.624
		c1.088,0,2.081-0.216,2.978-0.648c0.896-0.432,1.673-1.008,2.33-1.729c0.655-0.721,1.16-1.562,1.513-2.521
		c0.352-0.961,0.528-1.97,0.528-3.026V57.077c0-1.216,0.344-2.145,1.032-2.786c0.688-0.64,1.545-0.961,2.57-0.961
		c1.024,0,1.881,0.321,2.569,0.961c0.688,0.641,1.033,1.569,1.033,2.786v17.147c0,2.018-0.385,3.891-1.153,5.62
		s-1.817,3.227-3.146,4.491c-1.329,1.266-2.875,2.258-4.636,2.978c-1.761,0.721-3.635,1.081-5.619,1.081
		c-2.018,0-3.907-0.353-5.668-1.057c-1.761-0.704-3.307-1.688-4.635-2.954c-1.33-1.265-2.378-2.762-3.146-4.491
		c-0.769-1.729-1.153-3.618-1.153-5.668V57.077z"/>
	<path fill="#2A2A71" d="M167.762,57.221c0-1.152,0.353-2.041,1.057-2.666s1.617-0.937,2.738-0.937h9.222
		c1.249,0,2.418,0.2,3.507,0.6c1.088,0.401,2.041,0.969,2.857,1.705c0.816,0.737,1.465,1.626,1.945,2.666
		c0.48,1.041,0.721,2.202,0.721,3.482c0,1.697-0.36,3.114-1.081,4.25c-0.72,1.137-1.849,2.074-3.386,2.81v0.096
		c1.024,0.161,1.977,0.473,2.857,0.937c0.881,0.464,1.649,1.057,2.306,1.777s1.177,1.545,1.562,2.474
		c0.384,0.93,0.576,1.922,0.576,2.979c0,1.697-0.272,3.193-0.816,4.49c-0.545,1.297-1.306,2.387-2.282,3.267
		c-0.977,0.881-2.146,1.545-3.506,1.993c-1.361,0.449-2.874,0.673-4.539,0.673h-9.895c-1.121,0-2.041-0.328-2.762-0.985
		c-0.721-0.655-1.081-1.544-1.081-2.665V57.221z M174.967,67.164h3.746c1.185,0,2.13-0.328,2.834-0.985
		c0.704-0.656,1.057-1.592,1.057-2.81c0-1.121-0.384-1.969-1.152-2.546c-0.769-0.576-1.682-0.865-2.738-0.865h-3.746V67.164z
		 M174.967,81.477h5.668c1.313,0,2.393-0.36,3.242-1.08c0.848-0.721,1.272-1.754,1.272-3.099c0-1.12-0.425-2.033-1.272-2.737
		c-0.85-0.704-2.122-1.057-3.819-1.057h-5.091V81.477z"/>
	<path fill="#2A2A71" d="M195.86,84.648c0-1.024,0.367-1.905,1.104-2.643c0.736-0.736,1.616-1.104,2.642-1.104
		c1.024,0,1.905,0.368,2.642,1.104c0.736,0.737,1.104,1.618,1.104,2.643s-0.368,1.905-1.104,2.642s-1.617,1.104-2.642,1.104
		c-1.025,0-1.905-0.368-2.642-1.104C196.227,86.553,195.86,85.673,195.86,84.648z"/>
	<path fill="#2A2A71" d="M208.204,57.077c0-1.216,0.344-2.145,1.033-2.786c0.688-0.64,1.544-0.961,2.569-0.961
		c1.024,0,1.881,0.321,2.569,0.961c0.688,0.641,1.033,1.569,1.033,2.786v24.112h8.55c0.607,0,1.136,0.104,1.585,0.313
		c0.448,0.209,0.816,0.48,1.104,0.816s0.496,0.705,0.624,1.104c0.128,0.401,0.176,0.81,0.145,1.226
		c-0.032,0.801-0.353,1.529-0.961,2.185c-0.608,0.657-1.44,0.985-2.497,0.985H211.95c-1.185,0-2.105-0.353-2.762-1.057
		s-0.984-1.665-0.984-2.882V57.077z"/>
	<path fill="#2A2A71" d="M228.666,57.077c0-1.216,0.344-2.145,1.032-2.786c0.688-0.64,1.545-0.961,2.569-0.961
		s1.881,0.321,2.57,0.961c0.688,0.641,1.032,1.569,1.032,2.786v27.282c0,1.218-0.344,2.146-1.032,2.786
		c-0.689,0.641-1.546,0.961-2.57,0.961s-1.881-0.32-2.569-0.961c-0.688-0.64-1.032-1.568-1.032-2.786V57.077z"/>
	<path fill="#2A2A71" d="M240.192,57.365c0-0.992,0.319-1.865,0.961-2.618c0.64-0.752,1.568-1.128,2.785-1.128h12.297
		c1.057,0,1.856,0.344,2.401,1.033c0.544,0.689,0.816,1.449,0.816,2.281c0,0.833-0.264,1.593-0.792,2.282
		c-0.528,0.689-1.338,1.033-2.426,1.033h-8.838v7.013h7.444c1.153,0,2.018,0.336,2.594,1.008c0.577,0.673,0.865,1.425,0.865,2.258
		c0,0.833-0.288,1.602-0.865,2.306c-0.576,0.705-1.44,1.057-2.594,1.057h-7.444v10.471c0,1.218-0.345,2.146-1.033,2.786
		c-0.688,0.641-1.545,0.961-2.569,0.961c-1.025,0-1.882-0.32-2.569-0.961c-0.689-0.64-1.033-1.568-1.033-2.786V57.365z"/>
	<path fill="#2A2A71" d="M261.518,57.798c0-1.217,0.304-2.217,0.912-3.002c0.608-0.784,1.553-1.177,2.834-1.177h11.912
		c1.152,0,2.009,0.344,2.569,1.033c0.561,0.689,0.841,1.449,0.841,2.281c0,0.833-0.288,1.593-0.864,2.282
		c-0.577,0.689-1.426,1.033-2.546,1.033h-8.454v7.013h7.878c1.184,0,2.065,0.344,2.642,1.033c0.576,0.689,0.864,1.449,0.864,2.281
		c0,0.833-0.296,1.594-0.889,2.282s-1.465,1.032-2.617,1.032h-7.878v7.301h8.887c1.152,0,2.009,0.345,2.569,1.033
		c0.56,0.688,0.841,1.449,0.841,2.281c0,0.833-0.288,1.594-0.865,2.281c-0.576,0.689-1.425,1.033-2.545,1.033h-12.393
		c-1.057,0-1.938-0.328-2.642-0.985c-0.705-0.655-1.057-1.528-1.057-2.617V57.798z"/>
</g>
<circle fill="#FF2600" cx="59.133" cy="70.83" r="57.01"/>
<path fill="#FEFEFE" d="M60.141,48.804l5.399,5.399c-5.399,5.399-10.797,10.797-16.268,16.196c-0.216,0.216-0.216,0.648,0,0.864
	l9.43,9.358c0.216,0.288,0.576,0.288,0.864,0c5.399-5.399,10.725-10.797,16.052-16.34l5.543,5.543c0.576,0.576,0.576,1.44,0,2.015
	L60.141,92.928c-0.576,0.504-1.512,0.504-2.015,0L37.035,71.838c-0.504-0.576-0.504-1.44,0-2.015l21.091-21.019
	C58.629,48.228,59.565,48.228,60.141,48.804z M59.421,76.876c-0.216,0.144-0.432,0.144-0.576,0l-5.759-5.759
	c-0.144-0.144-0.144-0.36,0-0.576c7.486-7.486,15.044-15.044,22.602-22.602l21.163,21.235c0.936,0.936,0.936,2.447,0,3.383
	L60.789,108.62c-0.936,0.936-2.447,0.936-3.383,0L21.343,72.558c-0.936-0.936-0.936-2.447,0-3.383l36.063-36.063
	c0.936-0.936,2.447-0.936,3.383,0l12.957,12.885l-6.334,6.334l-7.126-7.198c-0.648-0.648-1.728-0.648-2.303,0L33.364,69.678
	c-0.576,0.648-0.576,1.728,0,2.303l24.618,24.618c0.576,0.576,1.656,0.576,2.303,0l24.546-24.618c0.648-0.576,0.648-1.656,0-2.303
	l-9.214-9.214C70.219,65.935,64.82,71.406,59.421,76.876z"/>
</svg>
